<?xml version="1.0" encoding="utf-8"?>
<!-- Generator: Adobe Illustrator 18.1.1, SVG Export Plug-In . SVG Version: 6.00 Build 0)  -->
<svg version="1.1" id="Layer_1" xmlns="http://www.w3.org/2000/svg" xmlns:xlink="http://www.w3.org/1999/xlink" x="0px" y="0px"
	 viewBox="0 0 819 12.8" enable-background="new 0 0 819 12.8" xml:space="preserve">
<polygon fill="#FFFFFF" points="819,1.2 818.3,0.5 816.5,3.8 814.6,1.7 812.8,1.9 810.9,2.9 809.1,4 807.2,1.2 805.4,3.6 803.5,3.1 
	801.7,2.4 799.8,3.1 798,2.3 796.1,3.8 794.3,0.8 792.4,1.6 790.6,1.5 788.7,3.4 786.9,1.4 785,3.7 783.2,1.8 781.3,2.7 779.5,3.6 
	777.6,0.7 775.8,0.8 773.9,3.6 772.1,1.6 770.2,2 768.4,0.6 766.5,1.8 764.7,2.4 762.8,3.1 761,2.4 759.1,3.7 757.3,2.5 755.4,1.9 
	753.6,0.4 751.7,2.1 749.9,1.8 748,1.4 746.2,1.6 744.3,0.5 742.5,2.1 740.6,0.9 738.8,0.1 736.9,3.2 735.1,3.6 733.2,0.2 
	731.4,0.6 729.5,3.4 727.7,3.1 725.8,3.4 724,0 722.2,1.7 720.3,3.9 718.5,1.4 716.6,1.4 714.8,1.1 712.9,0.2 711.1,0.3 709.2,0.5 
	707.4,2.3 705.5,3 703.7,2.8 701.8,1.1 700,3.5 698.1,0.8 696.3,1.4 694.4,1.4 692.6,3.7 690.8,0.5 688.9,3.4 687.1,0.4 685.2,3.9 
	683.4,3.2 681.5,1.8 679.7,3.3 677.8,3.8 676,1.3 674.2,3.9 672.3,1.3 670.5,0.1 668.6,0.7 666.8,0.8 664.9,2.2 663.1,1.1 
	661.2,1.3 659.4,3.6 657.5,2.5 655.7,3 653.8,2.9 652,0.1 650.2,1.7 648.3,2.9 646.5,4 644.6,3.9 642.8,0.9 641,1.2 639.1,2.4 
	637.3,1.6 635.4,3.1 633.6,1.5 631.7,1.9 629.9,3.8 628,1.4 626.2,0.4 624.3,3 622.5,0 620.6,3.9 618.8,1.9 617,3.6 615.1,3.1 
	613.3,1.3 611.4,3 609.6,2 607.7,0.2 605.9,3 604,0.3 602.2,2.5 600.3,0.1 598.5,3.4 596.6,2.8 594.8,1 592.9,0.6 591.1,2.9 
	589.3,3 587.4,2.5 585.6,2.3 583.7,3.3 581.9,2.8 580,3.1 578.2,1.5 576.3,1 574.5,0.5 572.6,2 570.8,3.3 568.9,1.6 567.1,1.8 
	565.3,3 563.4,3.8 561.6,3.4 559.7,0.5 557.9,2.8 556,3.6 554.2,1.9 552.3,2.8 550.5,2.9 548.7,3.7 546.8,3 545,1.6 543.1,0.8 
	541.3,3.4 539.4,2.6 537.6,2.6 535.7,2.1 533.9,2.9 532,0.1 530.2,1.3 528.3,1.7 526.5,2.1 524.7,1.1 522.8,3.4 521,3.2 519.1,2.3 
	517.3,0.1 515.4,0.2 513.6,3.2 511.7,2.2 509.9,1.1 508.1,0.7 506.2,0.9 504.4,3.1 502.5,0.5 500.7,1.6 498.8,1.4 497,3.4 
	495.1,3.8 493.3,2.9 491.5,0.1 489.6,3.3 487.8,3.6 485.9,2.2 484.1,3.9 482.2,1.7 480.4,2 478.5,1.8 476.7,2.2 474.8,2 473,2.9 
	471.2,3.1 469.3,3.6 467.5,3.1 465.6,2.7 463.8,2.8 461.9,3.3 460.1,3 458.2,2.7 456.4,3.5 454.6,2.4 452.7,0.8 450.9,3.5 449,2.8 
	447.2,3.2 445.3,2 443.5,3.4 441.7,2 439.8,0.3 438,0.2 436.1,2.8 434.3,3.6 432.4,2.2 430.6,1 428.8,3.9 426.9,2.2 425.1,1.7 
	423.2,3.4 421.4,3 419.5,0.2 417.7,1.9 415.8,2.8 414,2.1 412.2,0.7 410.3,0.1 408.5,1 406.6,3.7 404.8,1.7 402.9,0.4 401.1,0.3 
	399.2,0.6 397.4,3.6 395.5,2.8 393.7,3.4 391.9,4 390,2.5 388.2,0.3 386.3,2.1 384.5,1.7 382.6,1.3 380.8,2.7 379,3.8 377.1,2.3 
	375.3,1.9 373.4,2.5 371.6,0.4 369.8,0.2 367.9,0.3 366.1,2.7 364.2,0.6 362.4,2.3 360.5,2.8 358.7,1.9 356.9,3.9 355,1.9 
	353.2,1.2 351.3,1.6 349.5,3.4 347.7,3.2 345.8,1.8 344,0 342.1,1 340.3,2.7 338.4,0.9 336.6,1.8 334.8,2 332.9,0.5 331.1,2.7 
	329.2,2.7 327.4,2.9 325.5,2.1 323.7,2.1 321.9,2.4 320,3.6 318.2,1 316.3,0.1 314.5,2.6 312.6,3.2 310.8,2.5 308.9,2.4 307.1,1.6 
	305.3,1.3 303.4,3.8 301.6,3.3 299.7,3.4 297.9,2 296,4 294.2,2.6 292.4,1.2 290.5,1.7 288.7,3.5 286.8,1.5 285,3.8 283.1,1.6 
	281.3,3.5 279.5,2.7 277.6,3.6 275.8,0.4 273.9,3.7 272.1,1 270.3,3.4 268.4,2.6 266.6,1.3 264.7,2 262.9,3.4 261.1,1 259.2,1.1 
	257.4,1 255.5,0.4 253.7,0.9 251.9,1.7 250,1.2 248.2,3.6 246.4,1.3 244.5,3.1 242.7,0.5 240.8,3.9 239,3.5 237.2,3.3 235.3,1.7 
	233.5,1.9 231.6,3.3 229.8,2.4 228,0.3 226.1,2 224.3,0.5 222.4,3 220.6,3.1 218.8,2.3 216.9,2.7 215.1,1.8 213.2,1 211.4,0.5 
	209.6,0 207.7,0.7 205.9,1.1 204,0 202.2,1.4 200.3,3.9 198.5,0.4 196.7,2.3 194.8,2.9 193,2.4 191.1,0.2 189.3,0 187.4,0.4 
	185.6,2.9 183.8,1.7 181.9,1.4 180.1,0.9 178.2,0.2 176.4,2.3 174.5,1.4 172.7,3.4 170.8,1.1 169,2.2 167.2,1.1 165.3,2.2 
	163.5,2.2 161.6,3 159.8,2.7 158,0.3 156.1,3.6 154.3,1.3 152.4,2.6 150.6,0.6 148.8,3.3 146.9,2.7 145.1,1.1 143.2,1.8 141.4,2.4 
	139.6,3 137.7,3 135.9,0.5 134,2.4 132.2,1.7 130.4,0.9 128.5,2.2 126.7,1.4 124.8,3.4 123,2.2 121.1,0.3 119.3,0.4 117.5,3.1 
	115.6,3.7 113.8,1.1 111.9,0.1 110.1,0.5 108.2,3.9 106.4,0.7 104.6,3.7 102.7,2.3 100.9,3.9 99,0.9 97.2,1 95.3,0.5 93.5,2.4 
	91.6,3.6 89.8,1.6 88,0.8 86.1,1.9 84.3,3.3 82.4,0.6 80.6,2.3 78.7,1.6 76.9,2.7 75.1,1.2 73.2,3.2 71.4,2.4 69.5,2.2 67.7,0.3 
	65.8,2.8 64,0.9 62.2,1.8 60.3,3.1 58.5,1.6 56.6,3 54.8,3.4 52.9,3.3 51.1,1.2 49.3,1.8 47.4,0.1 45.6,3.5 43.7,3.7 41.9,3.2 
	40,3.8 38.2,1.3 36.4,2.4 34.5,0.6 32.7,1.9 30.8,1.4 29,0.4 27.1,3.8 25.3,2.7 23.5,2.3 21.6,0.7 19.8,1.5 17.9,0.6 16.1,3.2 
	14.3,0.6 12.4,3.3 10.6,3.7 8.7,0.3 6.9,2.1 5,0.6 3.2,3.4 1.5,0.6 0,1.9 0,11.8 1.6,10.4 3.4,11.2 5.2,10.3 7,9.7 8.8,10.4 
	10.7,11.6 12.5,12.4 14.4,10.7 16.2,10.9 18.1,12.4 19.9,12.1 21.8,11.8 23.6,9.9 25.5,9.1 27.3,10.5 29.2,12.1 31,10.1 32.9,11 
	34.7,11.1 36.6,9.2 38.4,12.1 40.3,10.8 42.1,10.7 44,10.8 45.8,12.7 47.7,11.2 49.5,11.3 51.4,10.5 53.2,9.2 55.1,10.7 56.9,11.7 
	58.8,10.3 60.6,9.6 62.5,11.7 64.3,11.9 66.2,11.8 68,10.4 69.9,10.1 71.7,11.5 73.6,12.5 75.4,12.1 77.3,11.4 79.1,11.8 81,12.5 
	82.8,11.6 84.7,12 86.5,9.9 88.4,11.7 90.2,9.1 92,10.7 93.9,12.7 95.7,11.7 97.6,12 99.4,10.1 101.3,12.4 103.1,9.3 105,10.7 
	106.8,10.1 108.7,8.9 110.5,9 112.4,12.4 114.2,12.3 116.1,9.3 117.9,12.7 119.8,10.3 121.6,12.5 123.4,11.5 125.3,10 127.1,8.9 
	129,10.9 130.8,9.3 132.7,11.3 134.5,9 136.4,10.8 138.2,11 140.1,11.9 141.9,12.7 143.7,10.4 145.6,11.2 147.4,12.1 149.3,10.5 
	151.1,11.4 153,10.4 154.8,10.2 156.7,12 158.5,11.7 160.4,10.4 162.2,8.9 164,11.2 165.9,10.8 167.7,8.9 169.6,9.2 171.4,9.2 
	173.3,11.9 175.1,11.8 176.9,10.8 178.8,11.5 180.6,11.7 182.5,12.3 184.3,9.7 186.2,11.9 188,10.2 189.9,9.4 191.7,12.3 
	193.6,11.2 195.4,8.9 197.2,9.3 199.1,12.5 200.9,11.2 202.8,12.6 204.6,11.9 206.5,11.1 208.3,9.6 210.2,10.7 212,11.1 213.9,11.2 
	215.7,9.3 217.6,10.4 219.4,11.3 221.3,10.9 223.1,9.9 224.9,9.1 226.8,12.5 228.6,12.7 230.5,10.8 232.3,10.3 234.2,9.9 236,12.4 
	237.9,12.7 239.7,10.5 241.6,12.8 243.4,10.5 245.3,11.8 247.1,9.6 248.9,9.5 250.8,8.8 252.6,8.8 254.5,11.4 256.3,9.7 258.2,11 
	260,11.8 261.9,11.8 263.7,11.6 265.5,10.4 267.4,10.2 269.2,9.4 271.1,9.2 272.9,11.5 274.8,11.8 276.6,10.3 278.5,11.6 
	280.3,12.5 282.2,11.5 284,12.1 285.9,12.7 287.7,11.2 289.5,11.4 291.4,9.1 293.2,11.7 295.1,9.1 296.9,10.1 298.8,9.3 300.6,11.3 
	302.5,10.2 304.3,11.8 306.1,11.7 308,12.7 309.8,10.2 311.7,12.8 313.5,10.7 315.4,11 317.2,10.2 319.1,9.7 320.9,10.4 322.7,11.3 
	324.6,11.9 326.4,12.8 328.3,11.3 330.1,10.9 332,9.9 333.8,9.8 335.7,12.7 337.5,9 339.4,11.2 341.2,9 343.1,9.9 344.9,9.8 
	346.7,10.5 348.6,11.4 350.4,11.5 352.3,11.1 354.1,9.1 356,12.4 357.8,11.4 359.6,9.8 361.5,12.7 363.3,9.4 365.2,12.1 367,11.6 
	368.9,9.9 370.7,10.5 372.5,10.6 374.4,11.3 376.2,10.9 378.1,10.8 379.9,11.7 381.8,9.5 383.6,9.7 385.4,10.4 387.3,11.6 
	389.1,9.9 391,11.2 392.8,12.5 394.7,11.6 396.5,11.3 398.4,12.6 400.2,12.1 402,11.9 403.9,12.1 405.7,10.5 407.6,10 409.4,9.3 
	411.3,11.5 413.1,12.4 415,9 416.8,11.5 418.7,9.9 420.5,11.9 422.3,9.2 424.2,11.7 426,12.7 427.9,9.6 429.7,10 431.6,10.1 
	433.4,12.8 435.2,12.1 437.1,11.7 438.9,12.6 440.8,10.6 442.6,9.8 444.4,12.8 446.3,12.2 448.1,11.5 450,10.6 451.8,11.4 
	453.7,10.6 455.5,11.5 457.3,10.4 459.2,11.4 461,10.5 462.9,11.4 464.7,9.5 466.5,9.2 468.4,11.8 470.2,10.1 472.1,11.3 
	473.9,10.1 475.8,11.3 477.6,12.6 479.4,11.9 481.3,10.1 483.1,12.5 485,11.9 486.8,11.1 488.7,12 490.5,10.9 492.3,8.9 494.2,11.1 
	496,11.5 497.9,10.7 499.7,12.6 501.6,10.7 503.4,10.4 505.3,10.6 507.1,12.7 508.9,9.1 510.8,8.9 512.6,10.2 514.5,12.4 
	516.3,10.3 518.2,9.7 520,9.2 521.9,10.9 523.7,11.6 525.5,9.2 527.4,9.4 529.2,9.5 531.1,10.1 532.9,10.1 534.7,11.6 536.6,10.8 
	538.4,11.1 540.3,9.7 542.1,9.5 543.9,10.9 545.8,12.2 547.6,9.8 549.5,10.4 551.3,8.9 553.1,11.1 555,11.9 556.8,12.8 558.7,10.8 
	560.5,10.7 562.3,10 564.2,11 566,10.2 567.9,10.2 569.7,9.9 571.5,12.1 573.4,10.6 575.2,10.3 577.1,10.7 578.9,10.6 580.7,9.8 
	582.6,11 584.4,9.3 586.2,9.4 588.1,10.1 589.9,9.2 591.8,12.5 593.6,12.3 595.4,8.8 597.3,9.7 599.1,12.3 601,11.1 602.8,9 
	604.7,10.9 606.5,9.4 608.3,12.6 610.2,9.5 612,9.4 613.9,9.4 615.7,11.1 617.5,10.5 619.4,12.4 621.2,11.4 623.1,9.1 624.9,12.1 
	626.8,11.2 628.6,10 630.4,10.9 632.3,12 634.1,12.5 636,10.7 637.8,12.7 639.7,10.6 641.5,12.4 643.4,11.2 645.2,12.5 647,9.9 
	648.9,9.3 650.7,9.2 652.6,12.6 654.4,10.8 656.3,10.2 658.1,12.6 659.9,10.5 661.8,10.9 663.6,9.4 665.5,9.2 667.3,9 669.1,11.3 
	671,9.7 672.8,10.9 674.7,10.6 676.5,10.4 678.3,10.4 680.2,10.7 682,11.3 683.8,10.4 685.7,11.7 687.5,11.3 689.4,10.7 691.2,12.3 
	693.1,11.2 694.9,10.5 696.7,12.3 698.6,11.6 700.4,10.2 702.3,11.1 704.1,12.2 706,12.3 707.8,11.1 709.6,12.6 711.5,10.5 
	713.3,12.4 715.2,9.3 717,12.3 718.9,10.2 720.7,11.3 722.6,10 724.4,12.6 726.2,10 728.1,10.3 729.9,9.5 731.8,10.1 733.6,9.5 
	735.5,11 737.3,11.5 739.1,12.8 741,11.6 742.8,12.4 744.7,9.4 746.5,10.6 748.4,12.5 750.2,8.9 752,12.5 753.9,11.6 755.7,9.4 
	757.6,10.8 759.4,9.2 761.3,12 763.1,11.4 764.9,10.8 766.8,11.5 768.6,11.9 770.5,11.6 772.3,8.9 774.2,9.8 776,11.4 777.8,9.8 
	779.7,10.1 781.5,10.9 783.4,11.3 785.2,9.3 787.1,10.2 788.9,12.6 790.7,11.3 792.6,11.3 794.4,10.2 796.3,10.6 798.1,11.1 
	800,10.7 801.8,9.3 803.6,12 805.5,11.4 807.3,10.3 809.2,12.7 811,10.9 812.9,12.2 814.7,11.3 816.5,9.5 818.4,12.2 819,11.9 "/>
</svg>
