<?xml version="1.0" encoding="utf-8"?>
<!-- Generator: Adobe Illustrator 18.1.1, SVG Export Plug-In . SVG Version: 6.00 Build 0)  -->
<svg version="1.1" id="Layer_1" xmlns="http://www.w3.org/2000/svg" xmlns:xlink="http://www.w3.org/1999/xlink" x="0px" y="0px"
	 viewBox="84 119.6 792 440.4" enable-background="new 84 119.6 792 440.4" xml:space="preserve">
<g>
	<rect x="84" y="119.6" fill="#FFFFFF" width="792" height="440.4"/>
	<g>
		<rect x="151" y="203.6" fill="none" stroke="#E30613" stroke-width="0.5" stroke-miterlimit="10" width="658" height="281.6"/>
		<rect x="146" y="198" fill="none" stroke="#E30613" stroke-width="0.5" stroke-miterlimit="10" width="668" height="292.9"/>
	</g>
	<rect x="203.4" y="468" fill="#FFFFFF" width="553.2" height="44.8"/>
	<rect x="372.5" y="185.4" fill="#FFFFFF" width="214.9" height="44.8"/>
	<g>
		<path fill="#E30613" d="M218.3,488.9c0-2.4,1.3-4.2,3.5-5.6l0.8,1.1c-1.9,1.3-2.8,2.6-2.8,4.4c0,1.9,0.9,3.3,2.8,4.4l-0.8,1.1
			C219.5,493.1,218.3,491.2,218.3,488.9z"/>
		<path fill="#E30613" d="M226.9,485H224v-1.5h7.4v1.5h-2.9v7.6h-1.7L226.9,485L226.9,485z"/>
		<path fill="#E30613" d="M233.1,483.5h6.7v1.5h-5.2v2.4h4.8v1.5h-4.6v2.4h5.2v1.5h-6.9L233.1,483.5L233.1,483.5z"/>
		<path fill="#E30613" d="M245.3,483.5h1.5l4,9h-1.7l-0.9-2.3H244l-0.9,2.3h-1.7L245.3,483.5z M247.6,489.1l-1.5-3.7l-1.5,3.7H247.6
			z"/>
		<path fill="#E30613" d="M252.6,483.5h4c1.1,0,2.1,0.4,2.6,0.9c0.6,0.6,0.8,1.1,0.8,2.1l0,0c0,1.5-0.9,2.4-2.3,2.8l2.4,3.5h-1.9
			l-2.3-3.1h-1.9v3.1h-1.7L252.6,483.5L252.6,483.5z M256.6,487.9c1.1,0,1.9-0.6,1.9-1.5l0,0c0-0.9-0.8-1.5-1.9-1.5h-2.4v2.9
			L256.6,487.9L256.6,487.9z"/>
		<path fill="#E30613" d="M266.4,483.5h6.7v1.5h-5.2v2.4h4.6v1.5h-4.6v3.7h-1.7v-9L266.4,483.5L266.4,483.5z"/>
		<path fill="#E30613" d="M275.2,483.5h4c1.1,0,2.1,0.4,2.6,0.9s0.8,1.1,0.8,2.1l0,0c0,1.5-0.9,2.4-2.3,2.8l2.4,3.5h-1.9l-2.3-3.1
			h-2.1v3.1H275v-9.2L275.2,483.5L275.2,483.5z M279,487.9c1.1,0,1.9-0.6,1.9-1.5l0,0c0-0.9-0.8-1.5-1.9-1.5h-2.4v2.9L279,487.9
			L279,487.9z"/>
		<path fill="#E30613" d="M284.4,488.1L284.4,488.1c0-2.6,2.1-4.6,4.8-4.6s4.8,2.1,4.8,4.6l0,0c0,2.6-2.1,4.6-4.8,4.6
			C286.5,492.7,284.4,490.7,284.4,488.1z M292.2,488.1L292.2,488.1c0-1.9-1.3-3.3-3.1-3.3c-1.9,0-3.1,1.5-3.1,3.1l0,0
			c0,1.9,1.3,3.1,3.1,3.1C290.9,491.2,292.2,489.8,292.2,488.1z"/>
		<path fill="#E30613" d="M296,483.5h1.7l2.8,4.2l2.8-4.2h1.7v9h-1.7v-6.5l-2.8,4.2l0,0l-2.8-4.2v6.5h-1.5v-9H296z"/>
		<path fill="#E30613" d="M314,485h-2.9v-1.5h7.4v1.5h-2.9v7.6h-1.7L314,485L314,485z"/>
		<path fill="#E30613" d="M320.3,483.5h1.7v3.7h4.2v-3.7h1.7v9h-1.7v-3.9H322v3.9h-1.7V483.5L320.3,483.5z"/>
		<path fill="#E30613" d="M330.5,483.5h6.7v1.5H332v2.4h4.6v1.5H332v2.4h5.2v1.5h-6.9v-9.2h0.2L330.5,483.5L330.5,483.5z"/>
		<path fill="#E30613" d="M343.3,488.1L343.3,488.1c0-2.6,1.9-4.6,4.6-4.6c1.7,0,2.8,0.6,3.5,1.5l-1.1,1.1c-0.8-0.8-1.5-1.1-2.6-1.1
			c-1.7,0-2.9,1.5-2.9,3.1l0,0c0,1.9,1.3,3.1,2.9,3.1c1.1,0,1.9-0.4,2.6-1.1l1.1,1.1c-0.9,0.9-2.1,1.7-3.7,1.7
			C345.1,492.7,343.3,490.7,343.3,488.1z"/>
		<path fill="#E30613" d="M353.1,488.1L353.1,488.1c0-2.6,2.1-4.6,4.8-4.6c2.8,0,4.8,2.1,4.8,4.6l0,0c0,2.6-2.1,4.6-4.8,4.6
			S353.1,490.7,353.1,488.1z M360.9,488.1L360.9,488.1c0-1.9-1.3-3.3-3.1-3.3c-1.8,0-3.1,1.5-3.1,3.1l0,0c0,1.9,1.3,3.1,3.1,3.1
			C359.5,491.2,360.9,489.8,360.9,488.1z"/>
		<path fill="#E30613" d="M364.7,483.5h4c1.1,0,2.1,0.4,2.6,0.9c0.6,0.6,0.8,1.1,0.8,2.1l0,0c0,1.5-0.9,2.4-2.3,2.8l2.4,3.5h-1.9
			l-2.3-3.1h-2v3.1h-1.7v-9.2L364.7,483.5L364.7,483.5L364.7,483.5z M368.6,487.9c1.1,0,1.9-0.6,1.9-1.5l0,0c0-0.9-0.8-1.5-1.9-1.5
			h-2.4v2.9L368.6,487.9L368.6,487.9z"/>
		<path fill="#E30613" d="M374.3,483.5h1.5l4.8,6.3v-6.3h1.5v9h-1.3l-5-6.5v6.5h-1.5L374.3,483.5L374.3,483.5z"/>
		<path fill="#E30613" d="M384.7,483.5h6.7v1.5h-5.2v2.4h4.6v1.5h-4.6v2.4h5.2v1.5h-6.9v-9.2h0.2L384.7,483.5L384.7,483.5z"/>
		<path fill="#E30613" d="M393.8,483.5h4c1.1,0,2.1,0.4,2.6,0.9c0.6,0.6,0.8,1.1,0.8,2.1l0,0c0,1.5-0.9,2.4-2.3,2.8l2.4,3.5h-1.9
			l-2.3-3.2h-2.1v3.1h-1.7v-9.2H393.8z M397.6,487.9c1.1,0,1.9-0.6,1.9-1.5l0,0c0-0.9-0.8-1.5-1.9-1.5h-2.4v2.9L397.6,487.9
			L397.6,487.9z"/>
		<path fill="#E30613" d="M402.6,491.2l0.9-1.1c0.9,0.8,1.7,1.1,2.8,1.1c0.9,0,1.7-0.6,1.7-1.1l0,0c0-0.8-0.4-0.9-2.1-1.5
			c-1.9-0.6-2.9-1.1-2.9-2.8l0,0c0-1.5,1.3-2.6,3.1-2.6c1.3,0,2.4,0.4,3.3,1.1l-0.9,1.3c-0.8-0.6-1.7-0.9-2.4-0.9
			c-0.9,0-1.5,0.6-1.5,1.1l0,0c0,0.8,0.4,0.9,2.3,1.5c1.9,0.6,2.9,1.1,2.9,2.6l0,0c0,1.7-1.3,2.8-3.3,2.8
			C405.1,492.7,403.8,492.2,402.6,491.2z"/>
		<path fill="#E30613" d="M418.1,485h-2.9v-1.5h7.4v1.5h-2.9v7.6H418V485H418.1z"/>
		<path fill="#E30613" d="M424.3,488.1L424.3,488.1c0-2.6,2.1-4.6,4.8-4.6c2.8,0,4.8,2.1,4.8,4.6l0,0c0,2.6-2.1,4.6-4.8,4.6
			S424.3,490.7,424.3,488.1z M432.1,488.1L432.1,488.1c0-1.9-1.3-3.3-3.1-3.3c-1.9,0-3.1,1.5-3.1,3.1l0,0c0,1.9,1.3,3.1,3.1,3.1
			C430.8,491.2,432.1,489.8,432.1,488.1z"/>
		<path fill="#E30613" d="M440.1,483.5h4c1.1,0,2.1,0.4,2.6,0.9c0.6,0.6,0.8,1.1,0.8,2.1l0,0c0,1.5-0.9,2.4-2.3,2.8l2.4,3.5h-1.9
			l-2.3-3.1h-2.1v3.1h-1.7v-9.2L440.1,483.5L440.1,483.5z M444.1,487.9c1.1,0,1.9-0.6,1.9-1.5l0,0c0-0.9-0.8-1.5-1.9-1.5h-2.4v2.9
			L444.1,487.9L444.1,487.9z"/>
		<path fill="#E30613" d="M449.7,483.5h6.7v1.5h-5.2v2.4h4.6v1.5h-4.6v2.4h5.2v1.5h-6.9v-9.2h0.2V483.5L449.7,483.5z"/>
		<path fill="#E30613" d="M457.8,483.5h1.9l2.8,7.1l2.8-7.1h1.7l-3.7,9h-1.5L457.8,483.5z"/>
		<path fill="#E30613" d="M468.7,483.5h6.7v1.5h-5.2v2.4h4.6v1.5h-4.6v2.4h5.2v1.5h-6.9v-9.2h0.2L468.7,483.5L468.7,483.5z"/>
		<path fill="#E30613" d="M480.7,483.5h1.5l4,9h-1.7l-0.9-2.3h-4.2l-0.9,2.3h-1.7L480.7,483.5z M483.2,489.1l-1.5-3.7l-1.5,3.7
			H483.2z"/>
		<path fill="#E30613" d="M488.1,483.5h1.7v7.6h4.8v1.5h-6.3v-9L488.1,483.5L488.1,483.5z"/>
		<path fill="#E30613" d="M502.7,485h-2.9v-1.5h7.4v1.5h-2.9v7.6h-1.7L502.7,485L502.7,485z"/>
		<path fill="#E30613" d="M509,483.5h1.7v3.7h4.2v-3.7h1.7v9h-1.7v-3.9h-4.2v3.9H509V483.5z"/>
		<path fill="#E30613" d="M519.2,483.5h6.7v1.5h-5.2v2.4h4.6v1.5h-4.6v2.4h5.2v1.5H519v-9.2h0.2V483.5L519.2,483.5z"/>
		<path fill="#E30613" d="M532,488.1L532,488.1c0-2.6,2.1-4.6,4.6-4.6c1.7,0,2.6,0.4,3.5,1.3l-0.9,1.3c-0.8-0.6-1.3-0.9-2.6-0.9
			c-1.7,0-2.9,1.5-2.9,3.1l0,0c0,1.9,1.3,3.3,3.1,3.3c0.9,0,1.7-0.2,2.3-0.8v-1.7h-2.4v-1.3h3.9v3.9c-0.9,0.8-2.3,1.5-3.7,1.5
			C533.9,492.7,532,490.7,532,488.1z"/>
		<path fill="#E30613" d="M542.7,483.5h1.7v9h-1.7V483.5z"/>
		<path fill="#E30613" d="M547.1,483.5h6.7v1.5h-5.2v2.4h4.6v1.5h-4.6v3.7h-1.7v-9L547.1,483.5L547.1,483.5z"/>
		<path fill="#E30613" d="M558.1,485h-2.9v-1.5h7.4v1.5h-2.9v7.6H558L558.1,485L558.1,485z"/>
		<path fill="#E30613" d="M570.8,485h-2.9v-1.5h7.4v1.5h-2.8v7.6h-1.7L570.8,485L570.8,485z"/>
		<path fill="#E30613" d="M577.3,483.5h1.7v3.7h4.2v-3.7h1.7v9h-1.7v-3.9H579v3.9h-1.7V483.5z"/>
		<path fill="#E30613" d="M590.7,483.5h1.5l4,9h-1.7l-0.9-2.3h-4.4l-0.9,2.3h-1.7L590.7,483.5z M592.8,489.1l-1.5-3.7l-1.5,3.7
			H592.8z"/>
		<path fill="#E30613" d="M600.1,485h-2.9v-1.5h7.4v1.5h-2.9v7.6H600L600.1,485L600.1,485z"/>
		<path fill="#E30613" d="M610.6,483.5h1.7v4.6l4.2-4.6h2.1l-3.7,3.9l3.9,5.2h-2.1l-3.1-4l-1.5,1.5v2.6h-1.7v-9L610.6,483.5
			L610.6,483.5z"/>
		<path fill="#E30613" d="M620.2,483.5h6.7v1.5h-5.2v2.4h4.6v1.5h-4.6v2.4h5.2v1.5H620v-9.2h0.2V483.5z"/>
		<path fill="#E30613" d="M629.3,483.5h6.7v1.5h-5.2v2.4h4.6v1.5h-4.6v2.4h5.2v1.5h-6.9v-9.2h0.2V483.5z"/>
		<path fill="#E30613" d="M638.2,483.5h3.5c2.1,0,3.5,1.3,3.5,2.9l0,0c0,2.1-1.7,3.1-3.7,3.1h-1.9v2.9h-1.7v-9L638.2,483.5
			L638.2,483.5z M641.8,488.3c1.3,0,2.1-0.8,2.1-1.7l0,0c0-1.1-0.8-1.7-2.1-1.7h-1.9v3.3L641.8,488.3L641.8,488.3z"/>
		<path fill="#E30613" d="M646.6,491.2l0.9-1.1c0.9,0.8,1.7,1.1,2.8,1.1c0.9,0,1.7-0.6,1.7-1.1l0,0c0-0.8-0.4-0.9-2.1-1.5
			c-1.9-0.6-2.9-1.1-2.9-2.8l0,0c0-1.5,1.3-2.6,3.1-2.6c1.3,0,2.4,0.4,3.3,1.1l-0.9,1.3c-0.8-0.6-1.7-0.9-2.4-0.9
			c-0.9,0-1.5,0.6-1.5,1.1l0,0c0,0.8,0.4,0.9,2.3,1.5c1.9,0.6,2.9,1.1,2.9,2.6l0,0c0,1.7-1.3,2.8-3.3,2.8
			C648.9,492.7,647.7,492.2,646.6,491.2z"/>
		<path fill="#E30613" d="M659.4,488.1L659.4,488.1c0-2.6,2.1-4.6,4.8-4.6s4.8,2.1,4.8,4.6l0,0c0,2.6-2.1,4.6-4.8,4.6
			C661.5,492.7,659.4,490.7,659.4,488.1z M667.2,488.1L667.2,488.1c0-1.9-1.3-3.3-3.1-3.3c-1.8,0-3.1,1.5-3.1,3.1l0,0
			c0,1.9,1.3,3.1,3.1,3.1S667.2,489.8,667.2,488.1z"/>
		<path fill="#E30613" d="M671.1,483.5h1.5l4.8,6.3v-6.3h1.5v9h-1.3l-5-6.5v6.5h-1.5L671.1,483.5L671.1,483.5z"/>
		<path fill="#E30613" d="M685.4,488.1L685.4,488.1c0-2.6,2.1-4.6,4.6-4.6c1.7,0,2.6,0.4,3.5,1.3l-0.9,1.3c-0.8-0.6-1.3-0.9-2.6-0.9
			c-1.7,0-2.9,1.5-2.9,3.1l0,0c0,1.9,1.3,3.3,3.1,3.3c0.9,0,1.7-0.2,2.3-0.8v-1.7h-2.4v-1.3h3.9v3.9c-0.9,0.8-2.3,1.5-3.7,1.5
			C687.3,492.7,685.4,490.7,685.4,488.1z"/>
		<path fill="#E30613" d="M696.3,483.5h1.7v9h-1.7V483.5z"/>
		<path fill="#E30613" d="M699.8,483.5h1.9l2.8,7.1l2.8-7.1h1.7l-3.7,9h-1.5L699.8,483.5z"/>
		<path fill="#E30613" d="M710.5,483.5h1.7v9h-1.7V483.5z"/>
		<path fill="#E30613" d="M714.8,483.5h1.5l4.8,6.3v-6.3h1.5v9h-1.3l-5-6.5v6.5h-1.5L714.8,483.5L714.8,483.5z"/>
		<path fill="#E30613" d="M725,488.1L725,488.1c0-2.6,2.1-4.6,4.6-4.6c1.7,0,2.6,0.4,3.5,1.3l-0.9,1.3c-0.8-0.6-1.3-0.9-2.6-0.9
			c-1.7,0-2.9,1.5-2.9,3.1l0,0c0,1.9,1.3,3.3,3.1,3.3c0.9,0,1.7-0.2,2.3-0.8v-1.7h-2.4v-1.3h3.9v3.9c-0.9,0.8-2.3,1.5-3.7,1.5
			C726.8,492.7,725,490.7,725,488.1z"/>
		<path fill="#E30613" d="M735.5,490.9h1.7v1.9h-1.7V490.9z"/>
		<path fill="#E30613" d="M249.8,505.7h1.5l4,9h-1.7l-0.9-2.3h-4.2l-0.9,2.3h-1.7L249.8,505.7z M252,511.3l-1.5-3.8l-1.5,3.7
			L252,511.3L252,511.3z"/>
		<path fill="#E30613" d="M257,505.7h1.5l4.8,6.3v-6.3h1.5v9h-1.3l-5-6.5v6.5H257L257,505.7L257,505.7z"/>
		<path fill="#E30613" d="M267.5,505.7h3.3c2.8,0,4.8,2.1,4.8,4.4l0,0c0,2.6-2.1,4.6-4.8,4.6h-3.3V505.7z M269,507.2v6.1h1.9
			c1.9,0,3.1-1.3,3.1-3.1l0,0c0-1.9-1.3-3.1-3.1-3.1L269,507.2L269,507.2z"/>
		<path fill="#E30613" d="M281.7,510.3L281.7,510.3c0-2.6,2.1-4.6,4.6-4.6c1.7,0,2.6,0.4,3.5,1.3l-0.9,1.3c-0.8-0.6-1.3-0.9-2.6-0.9
			c-1.7,0-2.9,1.5-2.9,3.1l0,0c0,1.9,1.3,3.3,3.1,3.3c0.9,0,1.7-0.2,2.3-0.8v-1.7h-2.4V510h3.9v3.9c-0.9,0.8-2.3,1.5-3.7,1.5
			C283.4,514.9,281.7,513,281.7,510.3z"/>
		<path fill="#E30613" d="M292.6,505.7h1.7v9h-1.7V505.7z"/>
		<path fill="#E30613" d="M296,505.7h1.9l2.8,7.1l2.8-7.1h1.7l-3.7,9h-1.5L296,505.7z"/>
		<path fill="#E30613" d="M306.8,505.7h1.7v9h-1.7V505.7z"/>
		<path fill="#E30613" d="M311.3,505.7h1.5l4.8,6.3v-6.3h1.5v9h-1.3l-5-6.5v6.5h-1.5L311.3,505.7L311.3,505.7z"/>
		<path fill="#E30613" d="M321.3,510.3L321.3,510.3c0-2.6,2.1-4.6,4.6-4.6c1.7,0,2.6,0.4,3.5,1.3l-0.9,1.3c-0.8-0.6-1.3-0.9-2.6-0.9
			c-1.7,0-2.9,1.5-2.9,3.1l0,0c0,1.9,1.3,3.3,3.1,3.3c0.9,0,1.7-0.2,2.3-0.8v-1.7h-2.4V510h3.9v3.9c-0.9,0.8-2.3,1.5-3.7,1.5
			C323,514.9,321.3,513,321.3,510.3z"/>
		<path fill="#E30613" d="M331.8,513.2h1.7v1.9h-1.7V513.2z"/>
		<path fill="#E30613" d="M343.1,505.7h1.5l4,9h-1.7l-0.9-2.3h-4.2l-0.9,2.3h-1.7L343.1,505.7z M345.4,511.3l-1.5-3.7l-1.5,3.7
			H345.4z"/>
		<path fill="#E30613" d="M350.5,505.7h1.5l4.8,6.3v-6.3h1.5v9H357l-5-6.5v6.5h-1.5L350.5,505.7L350.5,505.7z"/>
		<path fill="#E30613" d="M361,505.7h3.3c2.8,0,4.8,2.1,4.8,4.4l0,0c0,2.6-2.1,4.6-4.8,4.6H361V505.7z M362.5,507.2v6.1h1.9
			c1.9,0,3.1-1.3,3.1-3.1l0,0c0-1.9-1.3-3.1-3.1-3.1L362.5,507.2L362.5,507.2z"/>
		<path fill="#E30613" d="M375.1,510.3L375.1,510.3c0-2.6,2.1-4.6,4.6-4.6c1.7,0,2.6,0.4,3.5,1.3l-0.9,1.3c-0.8-0.6-1.3-0.9-2.6-0.9
			c-1.7,0-2.9,1.5-2.9,3.1l0,0c0,1.9,1.3,3.3,3.1,3.3c0.9,0,1.7-0.2,2.3-0.8v-1.7h-2.4V510h3.9v3.9c-0.9,0.8-2.3,1.5-3.7,1.5
			C376.9,514.9,375.1,513,375.1,510.3z"/>
		<path fill="#E30613" d="M386,505.7h1.7v9H386V505.7z"/>
		<path fill="#E30613" d="M389.6,505.7h1.9l2.8,7.1l2.8-7.1h1.7l-3.7,9h-1.5L389.6,505.7z"/>
		<path fill="#E30613" d="M400.3,505.7h1.7v9h-1.7V505.7z"/>
		<path fill="#E30613" d="M404.5,505.7h1.5l4.8,6.3v-6.3h1.5v9H411l-5-6.5v6.5h-1.5L404.5,505.7L404.5,505.7z"/>
		<path fill="#E30613" d="M414.7,510.3L414.7,510.3c0-2.6,2.1-4.6,4.6-4.6c1.7,0,2.6,0.4,3.5,1.3l-0.9,1.3c-0.8-0.6-1.3-0.9-2.6-0.9
			c-1.7,0-2.9,1.5-2.9,3.1l0,0c0,1.9,1.3,3.3,3.1,3.3c0.9,0,1.7-0.2,2.3-0.8v-1.7h-2.4V510h3.9v3.9c-0.9,0.8-2.3,1.5-3.7,1.5
			C416.5,514.9,414.7,513,414.7,510.3z"/>
		<path fill="#E30613" d="M425.2,513.2h1.7v1.9h-1.7V513.2z"/>
		<path fill="#E30613" d="M436.5,505.7h1.5l4,9h-1.7l-0.9-2.3h-4.2l-0.9,2.3h-1.7L436.5,505.7z M438.9,511.3l-1.5-3.7l-1.5,3.7
			H438.9z"/>
		<path fill="#E30613" d="M443.9,505.7h1.5l4.8,6.3v-6.3h1.5v9h-1.3l-5-6.5v6.5h-1.5L443.9,505.7L443.9,505.7z"/>
		<path fill="#E30613" d="M454.3,505.7h3.3c2.8,0,4.8,2.1,4.8,4.4l0,0c0,2.6-2.1,4.6-4.8,4.6h-3.3V505.7z M456,507.2v6.1h1.9
			c1.9,0,3.1-1.3,3.1-3.1l0,0c0-1.9-1.3-3.1-3.1-3.1L456,507.2L456,507.2z"/>
		<path fill="#E30613" d="M468.5,510.3L468.5,510.3c0-2.6,2.1-4.6,4.6-4.6c1.7,0,2.6,0.4,3.5,1.3l-0.9,1.3c-0.8-0.6-1.3-0.9-2.6-0.9
			c-1.7,0-2.9,1.5-2.9,3.1l0,0c0,1.9,1.3,3.3,3.1,3.3c0.9,0,1.7-0.2,2.3-0.8v-1.7H473V510h3.9v3.9c-0.9,0.8-2.3,1.5-3.7,1.5
			C470.4,514.9,468.5,513,468.5,510.3z"/>
		<path fill="#E30613" d="M479.5,505.7h1.7v9h-1.7V505.7z"/>
		<path fill="#E30613" d="M483,505.7h1.9l2.8,7.1l2.8-7.1h1.7l-3.7,9H487L483,505.7z"/>
		<path fill="#E30613" d="M493.7,505.7h1.7v9h-1.7V505.7z"/>
		<path fill="#E30613" d="M497.9,505.7h1.5l4.8,6.3v-6.3h1.5v9h-1.3l-5-6.5v6.5h-1.5V505.7L497.9,505.7z"/>
		<path fill="#E30613" d="M508.1,510.3L508.1,510.3c0-2.6,2.1-4.6,4.6-4.6c1.7,0,2.6,0.4,3.5,1.3l-1.1,1.1c-0.8-0.6-1.3-0.9-2.6-0.9
			c-1.7,0-2.9,1.5-2.9,3.1l0,0c0,1.9,1.3,3.3,3.1,3.3c0.9,0,1.7-0.2,2.3-0.8v-1.6h-2.4V510h3.9v3.9c-0.9,0.8-2.3,1.5-3.7,1.5
			C510,514.9,508.1,513,508.1,510.3z"/>
		<path fill="#E30613" d="M518.7,513.2h1.7v1.9h-1.7V513.2z"/>
		<path fill="#E30613" d="M530,505.7h1.5l4,9h-1.7l-0.9-2.3h-4.2l-0.9,2.3H526L530,505.7z M532.4,511.3l-1.5-3.8l-1.5,3.7
			L532.4,511.3L532.4,511.3z"/>
		<path fill="#E30613" d="M537.3,505.7h1.5l4.8,6.3v-6.3h1.5v9h-1.3l-5-6.5v6.5h-1.5L537.3,505.7L537.3,505.7z"/>
		<path fill="#E30613" d="M547.7,505.7h3.3c2.8,0,4.8,2.1,4.8,4.4l0,0c0,2.6-2.1,4.6-4.8,4.6h-3.3V505.7z M549.4,507.2v6.1h1.9
			c1.9,0,3.1-1.3,3.1-3.1l0,0c0-1.9-1.3-3.1-3.1-3.1L549.4,507.2L549.4,507.2z"/>
		<path fill="#E30613" d="M562,510.3L562,510.3c0-2.6,2.1-4.6,4.6-4.6c1.7,0,2.6,0.4,3.5,1.3l-0.9,1.3c-0.8-0.6-1.3-0.9-2.6-0.9
			c-1.7,0-2.9,1.5-2.9,3.1l0,0c0,1.9,1.3,3.3,3.1,3.3c0.9,0,1.7-0.2,2.3-0.8v-1.7h-2.4V510h3.9v3.9c-0.9,0.8-2.3,1.5-3.7,1.5
			C563.9,514.9,562,513,562,510.3z"/>
		<path fill="#E30613" d="M572.9,505.7h1.7v9h-1.7V505.7z"/>
		<path fill="#E30613" d="M576.4,505.7h1.9l2.8,7.1l2.8-7.1h1.7l-3.7,9h-1.5L576.4,505.7z"/>
		<path fill="#E30613" d="M587.1,505.7h1.7v9h-1.7V505.7z"/>
		<path fill="#E30613" d="M591.4,505.7h1.5l4.8,6.3v-6.3h1.5v9h-1.3l-5-6.5v6.5h-1.5L591.4,505.7L591.4,505.7z"/>
		<path fill="#E30613" d="M601.6,510.3L601.6,510.3c0-2.6,2.1-4.6,4.6-4.6c1.7,0,2.6,0.4,3.5,1.3l-0.9,1.3c-0.8-0.6-1.3-0.9-2.6-0.9
			c-1.7,0-2.9,1.5-2.9,3.1l0,0c0,1.9,1.3,3.3,3.1,3.3c0.9,0,1.7-0.2,2.3-0.8v-1.7h-2.4V510h3.9v3.9c-0.9,0.8-2.3,1.5-3.7,1.5
			C603.4,514.9,601.6,513,601.6,510.3z"/>
		<path fill="#E30613" d="M612.1,513.2h1.7v1.9h-1.7V513.2z"/>
		<path fill="#E30613" d="M623.4,505.7h1.5l4,9h-1.7l-0.9-2.3h-4.2l-0.9,2.3h-1.7L623.4,505.7z M625.8,511.3l-1.5-3.7l-1.5,3.7
			H625.8z"/>
		<path fill="#E30613" d="M630.8,505.7h1.5l4.8,6.3v-6.3h1.5v9h-1.3l-5-6.5v6.5h-1.5L630.8,505.7L630.8,505.7z"/>
		<path fill="#E30613" d="M641.2,505.7h3.3c2.8,0,4.8,2.1,4.8,4.4l0,0c0,2.6-2.1,4.6-4.8,4.6h-3.3V505.7z M642.8,507.2v6.1h1.9
			c1.9,0,3.1-1.3,3.1-3.1l0,0c0-1.9-1.3-3.1-3.1-3.1L642.8,507.2L642.8,507.2z"/>
		<path fill="#E30613" d="M655.4,510.3L655.4,510.3c0-2.6,2.1-4.6,4.6-4.6c1.7,0,2.6,0.4,3.5,1.3l-0.9,1.3c-0.8-0.6-1.3-0.9-2.6-0.9
			c-1.7,0-2.9,1.5-2.9,3.1l0,0c0,1.9,1.3,3.3,3.1,3.3c0.9,0,1.7-0.2,2.3-0.8v-1.7h-2.4V510h3.9v3.9c-0.9,0.8-2.3,1.5-3.7,1.5
			C657.3,514.9,655.4,513,655.4,510.3z"/>
		<path fill="#E30613" d="M666.3,505.7h1.7v9h-1.7V505.7z"/>
		<path fill="#E30613" d="M669.7,505.7h1.9l2.8,7.1l2.8-7.1h1.7l-3.7,9h-1.5L669.7,505.7z"/>
		<path fill="#E30613" d="M680.6,505.7h1.7v9h-1.7V505.7z"/>
		<path fill="#E30613" d="M684.8,505.7h1.5l4.8,6.3v-6.3h1.5v9h-1.3l-5-6.5v6.5h-1.5L684.8,505.7L684.8,505.7z"/>
		<path fill="#E30613" d="M695,510.3L695,510.3c0-2.6,2.1-4.6,4.6-4.6c1.7,0,2.6,0.4,3.5,1.3l-1.1,1.1c-0.8-0.6-1.3-0.9-2.6-0.9
			c-1.7,0-2.9,1.5-2.9,3.1l0,0c0,1.9,1.3,3.3,3.1,3.3c0.9,0,1.7-0.2,2.3-0.8v-1.6h-2.4V510h3.9v3.9c-0.9,0.8-2.3,1.5-3.7,1.5
			C696.9,514.9,695,513,695,510.3z"/>
		<path fill="#E30613" d="M705.5,513.2h1.7v1.9h-1.7V513.2z"/>
		<path fill="#E30613" d="M708.9,515.5c1.9-1.3,2.8-2.6,2.8-4.4s-0.9-3.3-2.8-4.4l0.8-1.1c2.4,1.3,3.5,3.1,3.5,5.6s-1.3,4.2-3.5,5.6
			L708.9,515.5z"/>
	</g>
	<g>
		<g>
			<path fill="#E30613" stroke="#E30613" stroke-width="0.5" stroke-miterlimit="10" d="M392.7,191.2h1.3l5.2,14.6l4.8-14.6h0.9
				l4.8,14.6l5.2-14.6h1.3l-5.9,16.5h-0.9l-4.8-14.2l-4.8,14.2h-1.1L392.7,191.2z"/>
			<path fill="#E30613" stroke="#E30613" stroke-width="0.5" stroke-miterlimit="10" d="M420.2,191.2h6.9c2.1,0,3.7,0.6,4.6,1.7
				c0.8,0.8,1.3,1.9,1.3,2.9l0,0c0,2.8-2.1,4.2-4.8,4.6l5.4,7.1h-1.7l-5.2-6.9h-5.4v6.9H420v-16.3H420.2z M426.9,199.6
				c2.8,0,4.8-1.3,4.8-3.7l0,0c0-2.3-1.7-3.5-4.6-3.5h-5.6v7.4h5.4L426.9,199.6L426.9,199.6z"/>
			<path fill="#E30613" stroke="#E30613" stroke-width="0.5" stroke-miterlimit="10" d="M437.6,191.2h1.3v16.3h-1.3V191.2z"/>
			<path fill="#E30613" stroke="#E30613" stroke-width="0.5" stroke-miterlimit="10" d="M444.5,191.2h5.9c3.5,0,6.1,1.9,6.1,5l0,0
				c0,3.5-2.9,5.2-6.3,5.2h-4.4v6.1h-1.3L444.5,191.2L444.5,191.2z M450,200.4c2.9,0,5.2-1.7,5.2-4l0,0c0-2.6-2.1-3.9-5-3.9h-4.6v8
				L450,200.4L450,200.4z"/>
			<path fill="#E30613" stroke="#E30613" stroke-width="0.5" stroke-miterlimit="10" d="M477.2,205c-1.5,1.9-3.3,2.8-5.6,2.8
				c-2.9,0-5-1.9-5-4.6l0,0c0-2.3,1.5-3.9,4.2-4.8c-1.3-1.3-1.9-2.4-1.9-3.7l0,0c0-2.1,1.7-3.7,4-3.7c2.1,0,3.7,1.7,3.7,3.5l0,0
				c0,2.1-1.5,3.3-4,4.2l4.2,4.4c0.8-1.1,1.5-2.4,2.1-3.9l1.1,0.4c-0.8,1.7-1.5,3.1-2.4,4.4l2.9,3.1l-0.9,0.8L477.2,205z
				 M476.5,204.3l-4.8-5c-2.6,0.9-3.7,2.4-3.7,4l0,0c0,2.1,1.7,3.5,3.9,3.5C473.6,206.7,475.2,205.7,476.5,204.3z M475.7,194.6
				L475.7,194.6c0-1.5-1.1-2.6-2.6-2.6c-1.7,0-2.8,1.1-2.8,2.6l0,0c0,1.1,0.4,1.9,1.9,3.3C474.4,197.3,475.7,196.1,475.7,194.6z"/>
			<path fill="#E30613" stroke="#E30613" stroke-width="0.5" stroke-miterlimit="10" d="M491,191.2h1.3l5.2,14.6l4.8-14.6h0.9
				l4.8,14.6l5.2-14.6h1.3l-5.9,16.5h-0.9l-4.8-14.2l-4.8,14.2h-0.9L491,191.2z"/>
			<path fill="#E30613" stroke="#E30613" stroke-width="0.5" stroke-miterlimit="10" d="M518.5,191.2h6.9c2.1,0,3.7,0.6,4.6,1.7
				c0.8,0.8,1.3,1.9,1.3,2.9l0,0c0,2.8-2.1,4.2-4.8,4.6l5.4,7.1h-1.5l-5.2-6.9h-5.4v6.9h-1.3L518.5,191.2L518.5,191.2z M525.1,199.6
				c2.8,0,4.8-1.3,4.8-3.7l0,0c0-2.3-1.7-3.5-4.6-3.5h-5.6v7.4h5.4L525.1,199.6L525.1,199.6z"/>
			<path fill="#E30613" stroke="#E30613" stroke-width="0.5" stroke-miterlimit="10" d="M541.9,191.2h1.1l7.6,16.5h-1.3l-2.1-4.6
				h-9.6l-2.1,4.6h-1.3L541.9,191.2z M546.8,201.9l-4.2-9.4l-4.2,9.4H546.8z"/>
			<path fill="#E30613" stroke="#E30613" stroke-width="0.5" stroke-miterlimit="10" d="M554.7,191.2h5.9c3.5,0,6.1,1.9,6.1,5l0,0
				c0,3.5-2.9,5.2-6.3,5.2h-4.6v6.1h-1.3v-16.3H554.7z M560.5,200.4c2.9,0,5.2-1.7,5.2-4l0,0c0-2.6-2.1-3.9-5-3.9h-4.8v8
				L560.5,200.4L560.5,200.4z"/>
		</g>
		<g>
			<path fill="#E30613" d="M438.2,170.7c0-5.9,0-11.9,0-17.8c-0.8,0-1.5,0-2.3,0c0-2.6,0-5.2,0-7.8c16.7,0,70.5,0,87.1,0
				c0,2.6,0,5.2,0,7.8c-0.6,0-1.1,0-1.7,0c0,5.9,0,11.9,0,17.8C506.1,170.7,453.7,170.7,438.2,170.7z M476.7,153.1
				c-5.9,0-30.6,0-36.5,0c0,5.2,0,10.5,0,15.7c5.9,0,30.6,0,36.5,0C476.7,163.6,476.7,158.4,476.7,153.1z M519.6,153.1
				c-5.9,0-30.6,0-36.5,0c0,5.2,0,10.5,0,15.7c5.9,0,30.6,0,36.5,0C519.6,163.6,519.6,158.4,519.6,153.1z M476.3,147.3
				c-6.7,0-31.6,0-38.3,0c0,1.1,0,2.3,0,3.1c0,0.4,0.2,0.6,0.6,0.6c6.3,0,30.9,0,37.2,0c0.2,0,0.4,0,0.6,0
				C476.3,149.9,476.3,148.5,476.3,147.3z M521.4,147.3c-6.5,0-31.4,0-37.7,0c0,1.3,0,2.6,0,3.7c0.2,0,0.4,0,0.6,0
				c6.1,0,30.8,0,36.8,0h0.2c0.2,0,0.2-0.2,0.2-0.2C521.4,149.7,521.4,148.5,521.4,147.3z M481.1,153.1c-0.9,0-1.7,0-2.4,0
				c0,5.2,0,10.5,0,15.7c0.8,0,1.7,0,2.4,0C481.1,163.6,481.1,158.4,481.1,153.1z M481.5,151.2c0-1.3,0-2.6,0-3.7
				c-1.1,0-2.3,0-3.3,0c0,1.3,0,2.4,0,3.7C479.5,151.2,480.3,151.2,481.5,151.2z"/>
			<path fill="#E30613" d="M479.7,142.5c0.8-1.1,1.5-2.3,2.3-3.1c1.1-1.5,2.6-2.4,4.4-2.6c2.6-0.4,5,1.3,5.4,3.7
				c0.4,2.6-1.3,5.2-3.9,5.6c-0.2,0-0.6,0-0.8,0c-5,0-10,0-15,0c-2.1,0-3.7-1.3-4.4-3.1c-0.8-1.8-0.2-3.9,1.1-5.2
				c1.5-1.3,3.7-1.7,5.7-0.6c1.5,0.8,2.6,1.9,3.5,3.1C478.9,141.2,479.3,142,479.7,142.5z M478.2,144.1c-0.9-1.9-1.9-3.7-3.7-4.8
				c-0.8-0.6-1.7-0.8-2.6-0.8c-1.3,0.2-2.4,1.3-2.4,2.6c0,1.5,1.1,2.8,2.4,2.8C474.1,144.1,476.1,144.1,478.2,144.1z M481.3,144.1
				c2.1,0,4,0,6.1,0c1.3,0,2.4-1.1,2.6-2.6c0.2-1.3-0.6-2.4-1.9-2.8c-1.3-0.4-2.4,0-3.3,0.8C483.2,140.6,482.2,142.3,481.3,144.1z"
				/>
		</g>
	</g>
	<g>
		<g>
			<path stroke="#000000" stroke-width="0.5" stroke-miterlimit="10" d="M225.8,294.5h3.7v14.8h19.3v-14.8h3.7v33.3h-3.7v-15h-19.3
				v15h-3.7V294.5z"/>
			<path stroke="#000000" stroke-width="0.5" stroke-miterlimit="10" d="M260.4,320.7L260.4,320.7c0-5.4,4.2-8,10.5-8
				c3.1,0,5.4,0.4,7.6,1.1v-0.9c0-4.4-2.8-6.7-7.4-6.7c-2.9,0-5.2,0.8-7.4,1.9l-1.1-2.9c2.8-1.3,5.4-2.1,8.8-2.1
				c3.5,0,6.1,0.9,8,2.8c1.7,1.7,2.6,4,2.6,7.2v15h-3.5v-3.7c-1.7,2.3-4.6,4.2-8.8,4.2C265,328.4,260.4,325.9,260.4,320.7z
				 M278.5,318.8v-2.4c-1.9-0.6-4.2-1.1-7.2-1.1c-4.6,0-7.2,2.1-7.2,5.2v0.2c0,3.1,2.8,4.8,6.1,4.8
				C274.8,325.5,278.5,322.7,278.5,318.8z"/>
			<path stroke="#000000" stroke-width="0.5" stroke-miterlimit="10" d="M290.7,303.3h3.7v5c2.1-2.9,4.8-5.6,9.4-5.6
				c5.9,0,11.9,4.6,11.9,12.8v0.2c0,8-5.7,12.8-11.9,12.8c-4.6,0-7.6-2.4-9.4-5.2v12.4h-3.7V303.3z M311.8,315.7L311.8,315.7
				c0-5.9-4-9.6-8.7-9.6s-8.8,3.9-8.8,9.4v0.2c0,5.7,4.2,9.4,8.8,9.4C307.9,325.1,311.8,321.6,311.8,315.7z"/>
			<path stroke="#000000" stroke-width="0.5" stroke-miterlimit="10" d="M323.2,303.3h3.7v5c2.1-2.9,4.8-5.6,9.4-5.6
				c5.9,0,11.9,4.6,11.9,12.8v0.2c0,8-5.7,12.8-11.9,12.8c-4.6,0-7.6-2.4-9.4-5.2v12.4h-3.7V303.3L323.2,303.3z M344.4,315.7
				L344.4,315.7c0-5.9-4-9.6-8.7-9.6c-4.6,0-8.8,3.9-8.8,9.4v0.2c0,5.7,4.2,9.4,8.8,9.4C340.4,325.1,344.4,321.6,344.4,315.7z"/>
			<path stroke="#000000" stroke-width="0.5" stroke-miterlimit="10" d="M374.3,303.3h3.9l-10.3,25.3c-2.1,5.2-4.4,7.1-8.2,7.1
				c-2.1,0-3.5-0.4-5.2-1.3l1.3-2.9c1.1,0.6,2.3,0.9,3.9,0.9c2.3,0,3.5-1.1,5-4.6l-11.1-24.5h4l8.8,20.5L374.3,303.3z"/>
			<path stroke="#000000" stroke-width="0.5" stroke-miterlimit="10" d="M400.8,294.5h3.7v14.8h19.3v-14.8h3.7v33.3h-3.7v-15h-19.3
				v15h-3.7V294.5z"/>
			<path stroke="#000000" stroke-width="0.5" stroke-miterlimit="10" d="M435.7,315.7L435.7,315.7c0-7.1,5.4-13,12.8-13
				s12.8,5.7,12.8,12.8v0.2c0,7.1-5.6,12.8-13,12.8C441.1,328.4,435.7,322.7,435.7,315.7z M457.6,315.7L457.6,315.7
				c0-5.4-3.9-9.6-9-9.6c-5.4,0-9,4.2-9,9.4v0.2c0,5.4,3.9,9.6,9,9.6C453.9,325.1,457.6,320.9,457.6,315.7z"/>
			<path stroke="#000000" stroke-width="0.5" stroke-miterlimit="10" d="M469.2,293.1h3.7v34.8h-3.7V293.1z"/>
			<path stroke="#000000" stroke-width="0.5" stroke-miterlimit="10" d="M482.6,293.9h4.2v4h-4.2V293.9z M482.8,303.3h3.7v24.6h-3.7
				V303.3z"/>
			<path stroke="#000000" stroke-width="0.5" stroke-miterlimit="10" d="M494.4,315.7L494.4,315.7c0-8.2,5.9-13,11.9-13
				c4.6,0,7.6,2.4,9.4,5.2v-14.8h3.7v34.8h-3.7v-5c-2.1,2.9-4.8,5.6-9.4,5.6C500.4,328.4,494.4,323.8,494.4,315.7z M515.7,315.7
				L515.7,315.7c0-5.7-4.2-9.6-8.8-9.6c-4.8,0-8.7,3.5-8.7,9.4v0.2c0,5.7,4,9.4,8.7,9.4C511.5,325.1,515.7,321.2,515.7,315.7z"/>
			<path stroke="#000000" stroke-width="0.5" stroke-miterlimit="10" d="M526.6,320.7L526.6,320.7c0-5.4,4.2-8,10.5-8
				c3.1,0,5.4,0.4,7.6,1.1v-0.9c0-4.4-2.8-6.7-7.4-6.7c-2.9,0-5.2,0.8-7.4,1.9l-1.1-2.9c2.8-1.3,5.4-2.1,8.8-2.1s6.1,0.9,8,2.8
				c1.7,1.7,2.6,4,2.6,7.2v15h-3.5v-3.7c-1.7,2.3-4.6,4.2-8.8,4.2C531.2,328.4,526.6,325.9,526.6,320.7z M544.8,318.8v-2.4
				c-1.9-0.6-4.2-1.1-7.2-1.1c-4.6,0-7.2,2.1-7.2,5.2v0.2c0,3.1,2.8,4.8,6.1,4.8C541.1,325.5,544.8,322.7,544.8,318.8z"/>
			<path stroke="#000000" stroke-width="0.5" stroke-miterlimit="10" d="M575.2,303.3h3.9l-10.3,25.3c-2.1,5.2-4.4,7.1-8.2,7.1
				c-2.1,0-3.5-0.4-5.2-1.3l1.3-2.9c1.1,0.6,2.3,0.9,3.9,0.9c2.3,0,3.5-1.1,5-4.6l-11.1-24.5h4l8.8,20.5L575.2,303.3z"/>
			<path stroke="#000000" stroke-width="0.5" stroke-miterlimit="10" d="M584,324.7l1.9-2.6c2.6,2.1,5.6,3.1,8.5,3.1
				c2.9,0,5.2-1.5,5.2-3.9v-0.1c0-2.4-2.9-3.5-6.1-4.2c-3.9-1.1-8.2-2.4-8.2-7.1v-0.2c0-4.2,3.5-7.1,8.4-7.1c2.9,0,6.3,1.1,8.8,2.8
				l-1.7,2.8c-2.3-1.5-4.8-2.4-7.2-2.4c-2.9,0-4.8,1.5-4.8,3.5v0.2c0,2.4,2.9,3.1,6.3,4.2c3.9,1.1,8,2.6,8,7.1v0.2
				c0,4.6-3.9,7.4-8.7,7.4C590.7,328.4,586.7,327,584,324.7z"/>
			<path stroke="#000000" stroke-width="0.5" stroke-miterlimit="10" d="M627.3,306.6H624v-3.1h3.3v-2.3c0-2.8,0.8-5,2.3-6.3
				c1.3-1.3,2.9-1.9,5.4-1.9c1.7,0,2.8,0.2,4,0.6v3.1c-1.3-0.4-2.4-0.6-3.5-0.6c-2.8,0-4.2,1.7-4.2,5.2v2.1h7.8v3.1h-7.8v21.3h-3.7
				v-21.3L627.3,306.6L627.3,306.6z"/>
			<path stroke="#000000" stroke-width="0.5" stroke-miterlimit="10" d="M644.3,303.3h3.7v6.5c1.9-4,5.4-7.1,10-6.9v3.9h-0.4
				c-5.4,0-9.8,3.9-9.8,11.3v9.8h-3.7v-24.6L644.3,303.3L644.3,303.3L644.3,303.3z"/>
			<path stroke="#000000" stroke-width="0.5" stroke-miterlimit="10" d="M663,315.7L663,315.7c0-7.1,5.4-13,12.8-13
				s12.8,5.7,12.8,12.8v0.2c0,7.1-5.6,12.8-13,12.8C668.4,328.4,663,322.7,663,315.7z M684.8,315.7L684.8,315.7c0-5.4-3.9-9.6-9-9.6
				c-5.4,0-9,4.2-9,9.4v0.2c0,5.4,3.9,9.6,9,9.6C681.2,325.1,684.8,320.9,684.8,315.7z"/>
			<path stroke="#000000" stroke-width="0.5" stroke-miterlimit="10" d="M696.1,303.3h3.7v4c1.7-2.4,3.9-4.6,8-4.6
				c4.1,0,6.5,2.3,8,4.8c1.9-2.8,4.4-4.8,8.7-4.8c5.7,0,9,3.9,9,9.8v15.1h-3.7v-14.4c0-4.8-2.4-7.4-6.3-7.4c-3.7,0-6.9,2.8-6.9,7.6
				v14.2H713v-14.4c0-4.6-2.4-7.4-6.3-7.4c-3.9,0-6.9,3.1-6.9,7.8v14h-3.7L696.1,303.3L696.1,303.3z"/>
		</g>
		<g>
			<path fill="#262626" d="M423.6,388.4c-2.4,2.4-6.1,3.7-11.1,3.7h-5.4l0.2-27.9h5.4c4.6,0,8,0.6,10.7,3.1c2.4,2.3,4,5.9,4,10.3
				C427.3,382.5,425.8,386.2,423.6,388.4 M414.5,360.9H399v3.3h3.9l-0.2,27.9H399v3.3h13.9c11.7,0,19.1-5.7,19.1-17.8
				C431.9,366.2,424.8,360.9,414.5,360.9"/>
			<path fill="#262626" d="M496.8,385.8c0-4.2,0.2-8.4,0.2-12.6h8v-3.3h-8l0.2-6.5l-4.2,0.2v6.3h-4v3.3h4c0,3.7-0.2,11.3-0.2,14.4
				c0,3.3,0,8.4,7.2,8.4c2.1,0,4.4-0.6,5.7-1.1l0.2-3.5c-1.1,0.4-2.9,1.1-5,1.1C496.8,392.5,496.8,389.5,496.8,385.8"/>
			<path fill="#262626" d="M517.8,392.8c-2.6,0-4.8-1.5-4.8-4.4c0-4.8,6.1-4.8,12.2-4.8C524.9,390.8,520.3,392.8,517.8,392.8
				 M528.9,378.4c0-6.9-3.5-9.2-10.2-9.2c-3.1,0-6.1,0.9-9,2.1v6.1h3.7v-4c1.9-0.8,4.2-0.9,5.6-0.9c4,0,5.9,1.7,5.9,6.5v1.9
				c-8.8,0-16.3,0.4-16.3,7.8c0,6.3,5,7.4,8,7.4c4.4,0,7.1-2.1,8.5-6.1h0.2c-0.2,0.9-0.6,2.9-0.6,4.4v1.1h6.7v-3.3h-2.9
				C528.7,387.5,528.9,380.6,528.9,378.4"/>
			<path fill="#262626" d="M545.1,380.6c-3.7-0.6-6.1-1.5-6.1-4.2c0-2.8,3.5-3.9,5.9-3.9c1.1,0,3.5,0.2,4.4,0.9l0.2,3.7h3.7L553,371
				c-2.1-0.9-5.9-1.5-8.2-1.5c-7.4,0-10,3.5-10,7.6c0,5,3.3,6.1,10.2,7.6c2.8,0.6,5.4,1.5,5.4,4c0,2.8-3.5,4.2-5.9,4.2
				c-1.7,0-4.2-0.4-5.7-1.1l-0.2-3.9h-3.7l0.2,6.5c1.7,0.9,5.9,1.5,8.7,1.5c7.4,0,10.3-3.7,10.3-8.2
				C554.4,383.6,551.6,381.7,545.1,380.6"/>
			<polygon fill="#262626" points="576.9,392.1 565.1,392.1 565.5,364.1 569,364.1 569,360.9 557.2,360.9 557.2,364.1 561.2,364.1 
				560.9,392.1 557.2,392.1 557.2,395.4 580.7,395.4 580.7,386.9 577.1,386.9 			"/>
			<path fill="#262626" d="M591.8,392.3h-3.1l0.2-13h4c4,0,9,0.9,9,6.7C602,392.3,596,392.3,591.8,392.3 M588.8,364h4.2
				c2.3,0,7.1-0.2,7.1,5.9c0,5.2-4.4,6.3-8.8,6.3h-2.4V364z M597.5,377.3L597.5,377.3c3.7-0.8,6.7-3.5,6.7-8.2
				c0-3.7-1.7-6.1-4.4-7.4c-2.1-0.9-3.9-1.1-7.2-1.1h-12v3.3h3.9l-0.4,31.2h10c6.1,0,12.2-2.3,12.2-9.6
				C606.4,380.2,602,377.1,597.5,377.3"/>
			<polygon fill="#262626" points="443.7,369.9 435.6,369.9 435.6,373.2 439.7,373.2 439.5,392.1 435.9,392.1 435.9,395.4 
				446.8,395.4 446.8,392.1 443.5,392.1 			"/>
			<polygon fill="#262626" points="483.9,369.9 475.7,369.9 475.7,373.2 479.8,373.2 479.7,392.1 476.3,392.1 476.3,395.4 
				487,395.4 487,392.1 483.7,392.1 			"/>
			<polygon fill="#262626" points="609.5,369.9 609.5,373.2 613.6,373.2 613.4,392.1 609.9,392.1 609.9,395.4 620.8,395.4 
				620.8,392.1 617.3,392.1 617.7,369.9 			"/>
			<path fill="#262626" d="M461,405.3c-2.6,0-8.5-0.6-8.5-4.4c0-3.3,5-4.6,5.6-4.6l6.9,0.9c2.3,0.4,4.2,0.8,4.2,2.9
				C469.2,403.7,464.1,405.3,461,405.3 M453.3,378.7c0-3.7,2.9-5.9,6.9-5.9c4.8,0,6.7,3.3,6.7,5.7c0,3.5-2.8,6.3-7.1,6.3
				C456.3,385,453.3,382.3,453.3,378.7 M466.5,393.8l-6.9-1.1c-3.1-0.6-4-0.9-4-2.1c0-1.9,3.3-2.4,4.4-2.4c5.9,0,10.7-3.3,10.7-9
				c0-1.9-0.4-3.7-1.9-5.6c-0.2-0.4-0.6-0.6-0.8-0.8l4.4,0.6v-3.5l-9,0.2l0,0c-0.9-0.4-2.1-0.6-3.3-0.6c-6.1,0-10.5,3.9-10.5,9.2
				c0,6.5,4.6,8.2,6.5,8.5v0.2c-2.3,0.6-4.6,1.3-4.6,3.9c0,2.4,1.9,3.5,3.9,3.9v0.2c-3.3,0.8-6.5,2.4-6.5,6.3c0,5,5.9,6.9,12,6.9
				c6.3,0,12.4-2.6,12.4-8.5C473.2,395.8,470.4,394.3,466.5,393.8"/>
			<path fill="#262626" d="M441.1,360.7c-1.7,0-2.9,1.3-2.9,2.9c0,1.6,1.3,2.9,2.9,2.9c1.7,0,2.9-1.3,2.9-2.9
				C444.1,362.1,442.8,360.7,441.1,360.7"/>
			<path fill="#262626" d="M481.3,360.7c-1.7,0-2.9,1.3-2.9,2.9c0,1.6,1.3,2.9,2.9,2.9c1.7,0,2.9-1.3,2.9-2.9
				C484.5,362.1,483,360.7,481.3,360.7"/>
			<path fill="#262626" d="M615,360.7c-1.7,0-2.9,1.3-2.9,2.9c0,1.6,1.3,2.9,2.9,2.9s2.9-1.3,2.9-2.9
				C618,362.1,616.7,360.7,615,360.7"/>
			<path fill="#E5262C" d="M364.3,352.5c-14.2,0-25.7,11.5-25.7,25.7s11.5,25.7,25.7,25.7s25.7-11.5,25.7-25.7
				C390.2,364,378.6,352.5,364.3,352.5"/>
			<path fill="#FFFFFF" d="M354,366.4L354,366.4L354,366.4z"/>
			<polygon fill="#FFFFFF" points="369,371.2 369.5,370.1 370.6,369.5 369.5,368.9 369,367.6 368.4,368.9 367.4,369.3 368.4,370.1 
							"/>
			<polygon fill="#FFFFFF" points="361.2,360.9 361.6,360.3 362.1,359.9 361.6,359.7 361.2,359 360.9,359.5 360.3,359.9 
				360.9,360.3 			"/>
			<polygon fill="#FFFFFF" points="362.1,385.2 361.6,386.3 360.7,386.7 361.6,387.3 361.9,388.2 362.5,387.3 363.4,386.7 
				362.5,386.3 			"/>
			<polygon fill="#FFFFFF" points="350.1,374.5 349.8,373.6 349.4,374.5 348.6,374.7 349.4,375.2 349.8,376 350.1,375.2 
				350.8,374.9 			"/>
			<path fill="#FFFFFF" d="M381.4,392.1c-0.6-0.6-1.5-0.2-2.3,0c-0.8,0.2-0.8-0.6-0.8-0.6s0.9,0.4,1.7,0c1.3-0.4,1.5-1.9,1.5-1.9
				c-0.4,0.8-1.1,0.9-1.1,0.9c0.2-0.2,0.2-0.8,0.2-0.8c-0.4,0.8-1.3,0.9-2.1,0.2c-0.2-0.2-0.2-0.4-0.2-0.8c0-0.6,0.4-1.1,0.9-1.7
				c1.1-1.1,2.3-2.9,1.7-4.6c-0.4-1.9-1.1-2.9-1.9-3.5c-0.9-0.8-2.3-1.3-2.8-1.3c-0.6-0.2-2.1,0.2-2.4,0.4c-0.2,0.2-0.2,0-0.2,0
				s-1.5-2.6-3.5-2.8c-2-0.2-2.9,0.2-3.5,0c-0.6,0-1.9-0.4-2.3-0.8s-0.9-0.9-1.1-0.9c-0.2-0.2,0-1.1,0-1.7c0-0.6,0.4-1.3,0-2.1
				c0-0.4-0.2-0.4-0.2-0.4c0.6,1.1,1.3,0.4,1.3,0.4s-0.6,0.2-0.6-0.4s-0.4-0.8-0.4-0.8c-0.2-0.2,0-0.6-0.2-0.9c-0.2-0.6,0-0.6,0-0.6
				c0.6,1.7,1.5,0.9,1.5,0.9s-0.8,0-0.8-0.9s-0.6-1.3-0.9-1.3c-0.2,0-0.6-0.2-0.8-0.2c0,0,0,0-0.2,0c-0.2-0.2-0.4-0.4-0.6-0.6
				c-0.2-0.4-0.6-0.6-0.8-0.8c-0.2-0.2-0.6-0.2-0.8-0.4c-0.2,0-0.4-0.2-0.4-0.2c-0.2,0-0.4,0-0.6,0c0-0.2-0.2-0.6-0.4-0.9
				c-0.6-0.9-1.7-0.8-1.7-0.8c0.4,0.2,0.9,0.6,0.8,1.1c-0.2,0.6-0.6,0.6-0.6,0.6s0.4-0.2,0.2-0.9c-0.2-0.6-0.9-0.4-0.9-0.4
				s0.9,0.6,0.2,1.1c-0.4,0.4-1.1-0.8-1.7-0.4c-0.8,0.4-0.4,0.9-0.2,1.1h0.1l0,0l0,0c0-0.2-0.2-0.2-0.4-0.2l0,0h-0.2
				c0-0.2-0.2-0.2-0.4-0.2l0,0l0,0c0-0.2-0.2-0.2-0.4-0.2l0,0h-0.2c0-0.2-0.2-0.2-0.4-0.2l0,0l0,0c0-0.2-0.2-0.2-0.4-0.2l0,0h-0.2
				c0-0.2-0.2-0.2-0.4-0.2l0,0h-0.2c0-0.2-0.2-0.2-0.2-0.2l0,0l0,0c0-0.2-0.2-0.2-0.4-0.2l0,0l0,0c0-0.2-0.2-0.2-0.2-0.2l0,0l0,0
				c0-0.2-0.2-0.2-0.2-0.2l0,0l0,0c0-0.2-0.2-0.2-0.2-0.2l0,0l0,0c0-0.2-0.2-0.2-0.2-0.2l0,0l-0.4-0.2c0,0-0.8-0.4-0.4,0.2
				c0,0,0.2,0.2,0.4,0.2c0,0.2,0.2,0.2,0.2,0.2l0,0l0,0c0,0.2,0.2,0.2,0.2,0.2l0,0l0,0c0,0.2,0.2,0.2,0.2,0.2l0,0l0,0
				c0,0.2,0.2,0.2,0.2,0.2l0,0l0,0c0,0.2,0.2,0.2,0.4,0.2l0,0c0,0,0,0,0.2,0c0,0.2,0.2,0.2,0.4,0.2l0,0c0,0,0,0,0.2,0
				c0,0.2,0.2,0.2,0.4,0.2l0,0h0.2c0,0.2,0.2,0.2,0.4,0.2l0,0l0,0c0,0.2,0.2,0.2,0.4,0.2l0,0c0,0,0,0,0.2,0c0,0.2,0.2,0.2,0.4,0.2
				l0,0l0,0c0,0.2,0.2,0.2,0.4,0.2l0,0c0,0,0,0,0.2,0c0,0.2,0.2,0.2,0.4,0.2l0,0l0,0c0,0.2,0.2,0.2,0.4,0.2l0,0
				c-0.2,0-0.6,0.2-0.8,0.4c-0.2,0.4-0.4,0.6-0.6,0.6c0,0,0.2,0.4,0.8-0.2c0.6-0.6,0.9,0,1.1,0c0,0,0,0-0.2,0.2
				c-0.2,0.2-0.2,0.2-0.4,0.4c-0.2,0.2-0.2,0.2-0.4,0.6c-0.2,0.2-0.2,0.2-0.4,0.4c-0.2,0.2-0.4,0.4-0.6,0.6
				c-0.2,0.2-0.2,0.4-0.2,0.6c0,0.2-0.2,0.6,0.4,0.9c0.6,0.4,0.6,0.2,0.6,0.2c0.2,0,0.2,0.2,0.4,0.2c0.2,0,0.6,0,0.8-0.2
				c0-0.2,0.4-0.4,0.6-0.4c0.2-0.2,1.9,0,2.4-0.8c0.6-0.6,0.4-0.2,0.4-0.2s-0.2,1.1-0.6,1.7c-0.4,0.6-0.6,1.9-0.8,2.3
				c0,0.4-0.4,2.8-0.4,2.9s-0.8,0.2-0.9,1.1c-0.2,1.1,0,2.9,0,2.9s-2.1-0.2-2.6-0.4c-0.6,0-1.1,0-1.3,0.4c-0.2,0.4-0.4,0.2-0.6,0.8
				c0,0.6,0.2,0.8,0.2,1.1c0,0.4,0.2,1.5,0.2,2.1s0,1.3,0,1.5c0.2,0.2,0.6,0,0.6,0.2c0,0.2,0.2,0.2,0.4,0.4c0.2,0.4,0.6,1.3,1.7,0.9
				c0.2-0.9,0-1.3-0.6-1.7c-0.2,0-0.4,0-0.4,0l-0.2-0.2c0,0,0.2-0.2,0.2-0.4s-0.6-0.4-0.8-1.1c-0.2-0.8,0-1.7-0.2-2.1
				c-0.2-0.4,0.9-0.4,0.9-0.4c0.2,0,1.3,1.3,2.8,0.9c0.4,0.2,0.9,0.8,0.9,0.8s-0.6,1.5-0.6,2.8c-0.4,0.2-0.4,0.8-0.4,0.9
				c0,0.2-0.2,0.4-0.4,1.1c0,0.8-0.2,0.9-0.4,1.3s-0.2,0.8-0.6,1.1c-0.4,0.4-0.8,0.2-0.8,0.6c0,0.2-0.2,0.6-0.6,0.6
				c-0.4,0.2-0.8,0.8-0.8,1.1c-0.2,0.4,0.9,0.9,1.9,0.4c0.2-0.4,0-0.9,0-0.9s0.4,0,0.6-0.2c0.4-0.2,0.4-0.8,0.6-1.1
				c0-0.4,1.3-2.6,1.5-2.8c0.2-0.2,0.2-0.6,0.2-0.6l0.4-0.4c0,0,0.2-1.3,0.4-1.5c0.2-0.2,1.3-2.1,1.3-2.1s0-0.2,0.2-0.8
				c0.2-0.4,2.1,1.1,6.5,0c0,0.4,0,1.3,0.2,1.7c0.2,0.4,0.9,0.9,1.1,1.1c0.2,0.2,0.2,0.6,0.4,0.9c0.2,0.4,0.6,0.4,0.9,0.9
				c0.4,0.4,0.4,0.9,0.2,1.1c0,0.2-2.3,2.1-2.4,2.3c-0.2,0.2-0.6,0.2-0.8,0.8c-0.2,0.4-0.8,0.6-0.8,0.6s-0.4,0-0.6,0.4
				c0,0.2-0.4,0.9-0.4,1.1s1.7,0.2,1.9-0.2c0.2-0.4,0-0.9,0-0.9c0.2,0,0.2,0,0.2,0s0.8,0.2,0.9-0.2c0.2-0.4,0.2-0.6,0.2-0.6
				s1.7-1.3,2.3-1.5c0.4-0.2,1.1-0.8,1.3-0.9c0-0.4-0.2-0.8-0.4-1.1c-0.4-0.4-0.2-0.6-0.2-0.6s-0.2-1.5-0.2-1.9s1.1,1.5,2.8,1.5
				c0.4,0.6,0.8,0.8,0.8,0.8l-1.7,1.9c0,0-0.6,0-0.8,0.6c-0.2,0.6,0,1.7,0,2.1c-0.2,0.4,0.9,0.6,1.3,0.9c0.4-0.6,0.4-1.7,0.2-1.7
				s-0.6,0-0.6-0.2s0.2-0.2,0.4-0.4c0.2,0,0.2-0.6,0.2-0.6c0-0.2,2.3-2.3,2.3-2.3l-0.4,0.9c-0.4,0.8-0.6,1.9-0.2,2.4
				s0.6,0.4,0.6,0.4s0.8,2.3,2.8,1.9c0.4-0.2,0.6-0.2,0.6-0.2c1.7,0.9,2.1-0.2,2.8-0.8c0.8-0.6,0.9,0.6,0.9,0.6
				S381.9,392.6,381.4,392.1 M372.7,384c0,0,0,0.2,0,0.4c0,0.4,0,0.8,0,0.8s0,0.2-0.2,0.2c-0.2,0-0.2,0-0.4-0.4l0,0
				c0-0.2,0-0.2,0-0.4c0-0.2,0-0.2,0.4-0.4C372.5,384,372.7,383.8,372.7,384L372.7,384z M375.1,380.6c-0.2,0.4-1.3,1.3-0.9,0.8
				c0.2-0.6,0-2.1,0-2.1C374.7,378.5,375.1,380.2,375.1,380.6"/>
			<polygon fill="#FFFFFF" points="377.3,374.5 377.7,373.7 378.5,373.6 377.7,373.2 377.5,372.3 377.1,373 376.4,373.4 
				377.1,373.7 			"/>
			<g>
				<path fill="#E5262C" d="M479.8,401.5h1.5l1.7,2.6l1.7-2.6h1.5v6.3h-1.3v-4l-1.7,2.6l0,0l-1.7-2.6v4h-1.3v-6.3H479.8z"/>
				<path fill="#E5262C" d="M488.9,401.5h4.6v1.3h-3.3v1.3h2.9v1.3h-2.9v1.3h3.3v1.3h-4.8v-6.5L488.9,401.5L488.9,401.5z"/>
				<path fill="#E5262C" d="M496.1,401.5h1.3l2.9,3.9v-3.9h1.3v6.3h-1.1l-2.9-3.9v3.9h-1.3v-6.3H496.1z"/>
				<path fill="#E5262C" d="M506.5,401.5h1.3l2.6,6.3h-1.5l-0.6-1.5h-2.6l-0.6,1.5h-1.5L506.5,401.5z M507.9,405.1l-0.8-2.1
					l-0.8,2.1H507.9z"/>
			</g>
		</g>
	</g>
</g>
<g>
	<path fill="#1D1D1B" d="M379.3,544.9L379.3,544.9c0-2.2,1.8-4.1,4.2-4.1s4.2,1.8,4.2,4.1l0,0c0,2.2-1.8,4.1-4.2,4.1
		S379.3,547.2,379.3,544.9z M385.9,544.9L385.9,544.9c0-1.4-1-2.5-2.4-2.5c-1.4,0-2.4,1.1-2.4,2.4l0,0c0,1.4,1,2.5,2.4,2.5
		C384.9,547.3,385.9,546.3,385.9,544.9z"/>
	<path fill="#1D1D1B" d="M389.1,542.8h1.7v0.8c0.4-0.6,1-1,1.8-1c1.4,0,2.8,1.1,2.8,3.1l0,0c0,2-1.3,3.1-2.8,3.1
		c-0.8,0-1.4-0.4-1.8-0.8v2.5h-1.7V542.8z M393.6,545.8L393.6,545.8c0-1-0.7-1.7-1.4-1.7c-0.8,0-1.4,0.7-1.4,1.7l0,0
		c0,1,0.7,1.7,1.4,1.7C393.1,547.5,393.6,546.9,393.6,545.8z"/>
	<path fill="#1D1D1B" d="M397,547.2v-2.8h-0.7V543h0.7v-1.5h1.7v1.5h1.4v1.4h-1.4v2.5c0,0.4,0.1,0.6,0.6,0.6c0.3,0,0.6-0.1,0.8-0.3
		v1.4c-0.4,0.3-0.8,0.3-1.4,0.3C397.7,549,397,548.6,397,547.2z"/>
	<path fill="#1D1D1B" d="M401.3,540.6h1.8v1.5h-1.8V540.6z M401.3,542.8h1.7v6h-1.7V542.8z"/>
	<path fill="#1D1D1B" d="M404.7,542.8h1.7v0.8c0.4-0.6,0.8-1,1.8-1c0.8,0,1.4,0.3,1.7,1c0.6-0.6,1.1-1,2-1c1.3,0,2,0.7,2,2.2v3.9
		h-1.7v-3.4c0-0.8-0.4-1.3-1-1.3c-0.6,0-1,0.4-1,1.3v3.4h-1.7v-3.4c0-0.8-0.4-1.3-1-1.3s-1,0.4-1,1.3v3.4h-1.7v-6H404.7z"/>
	<path fill="#1D1D1B" d="M415.4,540.6h1.8v1.5h-1.8V540.6z M415.4,542.8h1.7v6h-1.7V542.8z"/>
	<path fill="#1D1D1B" d="M418.3,548l0.7-1.1c0.7,0.4,1.4,0.7,2,0.7s0.7-0.1,0.7-0.4l0,0c0-0.4-0.6-0.6-1.3-0.7
		c-0.8-0.3-1.8-0.7-1.8-1.8l0,0c0-1.3,1-2,2.2-2c0.7,0,1.5,0.3,2.2,0.7l-0.7,1.1c-0.6-0.3-1.1-0.6-1.7-0.6c-0.4,0-0.6,0.1-0.6,0.4
		l0,0c0,0.3,0.6,0.6,1.3,0.7c0.8,0.3,1.8,0.7,1.8,1.8l0,0c0,1.4-1,2-2.2,2C420,549,419,548.7,418.3,548z"/>
	<path fill="#1D1D1B" d="M424.1,545.9L424.1,545.9c0-1.7,1.3-3.1,2.9-3.1c2,0,2.9,1.5,2.9,3.2c0,0.1,0,0.3,0,0.4h-4.2
		c0.1,0.8,0.7,1.1,1.4,1.1c0.6,0,1-0.1,1.4-0.6l1,0.8c-0.6,0.7-1.4,1.1-2.5,1.1C425.5,549,424.1,547.7,424.1,545.9z M428.3,545.3
		c-0.1-0.7-0.6-1.3-1.3-1.3c-0.7,0-1.1,0.6-1.3,1.3H428.3z"/>
	<path fill="#1D1D1B" d="M430.9,545.8L430.9,545.8c0-2,1.3-3.1,2.8-3.1c0.8,0,1.4,0.4,1.8,0.8v-2.9h1.7v8.1h-1.7v-0.8
		c-0.4,0.6-1,1-1.8,1C432.3,549,430.9,547.9,430.9,545.8z M435.6,545.8L435.6,545.8c0-1-0.7-1.7-1.4-1.7c-0.8,0-1.4,0.7-1.4,1.7l0,0
		c0,1,0.7,1.7,1.4,1.7C435,547.5,435.6,546.9,435.6,545.8z"/>
	<path fill="#1D1D1B" d="M442.5,544.2h-0.7v-1.4h0.7v-0.4c0-0.7,0.1-1.1,0.4-1.4c0.3-0.3,0.8-0.4,1.4-0.4s0.8,0,1.3,0.1v1.4
		c-0.3-0.1-0.4-0.1-0.8-0.1c-0.4,0-0.6,0.1-0.6,0.7v0.3h1.4v1.4h-1.4v4.5h-1.7L442.5,544.2L442.5,544.2z"/>
	<path fill="#1D1D1B" d="M446.2,545.9L446.2,545.9c0-1.7,1.4-3.1,3.2-3.1c1.8,0,3.2,1.4,3.2,3.1l0,0c0,1.7-1.4,3.1-3.2,3.1
		C447.6,549,446.2,547.6,446.2,545.9z M451,545.9L451,545.9c0-0.8-0.7-1.7-1.5-1.7c-1,0-1.5,0.7-1.5,1.7l0,0c0,0.8,0.7,1.7,1.5,1.7
		C450.4,547.5,451,546.8,451,545.9z"/>
	<path fill="#1D1D1B" d="M454,542.8h1.7v1.3c0.3-0.8,0.8-1.4,2-1.3v1.8h-0.1c-1.1,0-1.8,0.7-1.8,2.1v2.2H454V542.8z"/>
	<path fill="#1D1D1B" d="M462.2,541h6v1.5h-4.2v1.7h3.8v1.5h-3.8v3.1h-1.7V541H462.2z"/>
	<path fill="#1D1D1B" d="M469.4,540.6h1.8v1.5h-1.8V540.6z M469.4,542.8h1.7v6h-1.7V542.8z"/>
	<path fill="#1D1D1B" d="M472.8,542.8h1.7v1.3c0.3-0.8,0.8-1.4,2-1.3v1.8h-0.1c-1.1,0-1.8,0.7-1.8,2.1v2.2h-1.7V542.8z"/>
	<path fill="#1D1D1B" d="M477.1,545.9L477.1,545.9c0-1.7,1.3-3.1,2.9-3.1c2,0,2.9,1.5,2.9,3.2c0,0.1,0,0.3,0,0.4h-4.2
		c0.1,0.8,0.7,1.1,1.4,1.1c0.6,0,1-0.1,1.4-0.6l1,0.8c-0.6,0.7-1.4,1.1-2.5,1.1C478.5,549,477.1,547.7,477.1,545.9z M481.5,545.3
		c-0.1-0.7-0.6-1.3-1.3-1.3s-1.1,0.6-1.3,1.3H481.5z"/>
	<path fill="#1D1D1B" d="M484.7,544.2H484v-1.4h0.7v-0.4c0-0.7,0.1-1.1,0.4-1.4c0.3-0.3,0.8-0.4,1.4-0.4c0.6,0,0.8,0,1.3,0.1v1.4
		c-0.3-0.1-0.4-0.1-0.8-0.1c-0.4,0-0.6,0.1-0.6,0.7v0.3h1.4v1.4h-1.4v4.5h-1.7L484.7,544.2L484.7,544.2z"/>
	<path fill="#1D1D1B" d="M488.3,545.9L488.3,545.9c0-1.7,1.4-3.1,3.2-3.1c1.8,0,3.2,1.4,3.2,3.1l0,0c0,1.7-1.4,3.1-3.2,3.1
		C489.7,549,488.3,547.6,488.3,545.9z M493.1,545.9L493.1,545.9c0-0.8-0.7-1.7-1.5-1.7c-1,0-1.5,0.7-1.5,1.7l0,0
		c0,0.8,0.7,1.7,1.5,1.7C492.6,547.5,493.1,546.8,493.1,545.9z"/>
	<path fill="#1D1D1B" d="M498.6,544.5l1.1-1.8h1.8l-2,2.9l2.1,3.1h-1.8l-1.3-1.8l-1.3,1.8h-1.8l2.1-3.1l-2-2.9h1.8L498.6,544.5z"/>
	<path fill="#1D1D1B" d="M505.6,547L505.6,547c0-1.4,1-2,2.4-2c0.6,0,1,0.1,1.4,0.3v-0.1c0-0.7-0.4-1.1-1.3-1.1
		c-0.7,0-1.1,0.1-1.7,0.3l-0.4-1.3c0.7-0.3,1.3-0.4,2.4-0.4c1,0,1.5,0.3,2,0.7c0.4,0.4,0.7,1.1,0.7,2v3.5h-1.7v-0.7
		c-0.4,0.4-1,0.7-1.8,0.7C506.6,549,505.6,548.3,505.6,547z M509.5,546.8v-0.3c-0.3-0.1-0.7-0.3-1.1-0.3c-0.7,0-1.1,0.3-1.1,0.8l0,0
		c0,0.4,0.4,0.7,1,0.7C509,547.7,509.5,547.3,509.5,546.8z"/>
	<path fill="#1D1D1B" d="M512.6,542.8h1.7v0.8c0.4-0.6,0.8-1,1.8-1c1.3,0,2.1,0.8,2.1,2.2v3.9h-1.7v-3.4c0-0.8-0.4-1.3-1-1.3
		c-0.6,0-1.1,0.4-1.1,1.3v3.4h-1.7v-6H512.6z"/>
	<path fill="#1D1D1B" d="M519.4,545.8L519.4,545.8c0-2,1.3-3.1,2.8-3.1c0.8,0,1.4,0.4,1.8,0.8v-2.9h1.7v8.1H524v-0.8
		c-0.4,0.6-1,1-1.8,1C520.8,549,519.4,547.9,519.4,545.8z M524,545.8L524,545.8c0-1-0.7-1.7-1.4-1.7c-0.8,0-1.4,0.7-1.4,1.7l0,0
		c0,1,0.7,1.7,1.4,1.7C523.3,547.5,524,546.9,524,545.8z"/>
	<path fill="#1D1D1B" d="M530.4,544.9L530.4,544.9c0-2.2,1.7-4.1,4.1-4.1c1.5,0,2.4,0.6,3.1,1.3l-1.1,1.3c-0.6-0.6-1.3-0.8-2-0.8
		c-1.3,0-2.2,1.1-2.2,2.4l0,0c0,1.4,1,2.5,2.2,2.5c0.8,0,1.4-0.4,2.1-1l1.1,1.1c-0.8,0.8-1.7,1.4-3.2,1.4
		C532.1,549,530.4,547.2,530.4,544.9z"/>
	<path fill="#1D1D1B" d="M538.9,540.6h1.7v3.1c0.4-0.6,0.8-1,1.8-1c1.3,0,2.1,0.8,2.1,2.2v3.9h-1.8v-3.4c0-0.8-0.4-1.3-1-1.3
		s-1.1,0.4-1.1,1.3v3.4h-1.7V540.6z"/>
	<path fill="#1D1D1B" d="M545.9,542.8h1.7v1.3c0.3-0.8,0.8-1.4,2-1.3v1.8h-0.1c-1.1,0-1.8,0.7-1.8,2.1v2.2h-1.7V542.8z"/>
	<path fill="#1D1D1B" d="M550.2,545.9L550.2,545.9c0-1.7,1.4-3.1,3.2-3.1s3.2,1.4,3.2,3.1l0,0c0,1.7-1.4,3.1-3.2,3.1
		S550.2,547.6,550.2,545.9z M555.1,545.9L555.1,545.9c0-0.8-0.7-1.7-1.5-1.7c-1,0-1.5,0.7-1.5,1.7l0,0c0,0.8,0.7,1.7,1.5,1.7
		C554.6,547.5,555.1,546.8,555.1,545.9z"/>
	<path fill="#1D1D1B" d="M558.1,542.8h1.7v0.8c0.4-0.6,0.8-1,1.8-1c0.8,0,1.4,0.3,1.7,1c0.6-0.6,1.1-1,2-1c1.3,0,2,0.7,2,2.2v3.9
		h-1.7v-3.4c0-0.8-0.4-1.3-1-1.3s-1,0.4-1,1.3v3.4h-1.7v-3.4c0-0.8-0.4-1.3-1-1.3c-0.7,0-1,0.4-1,1.3v3.4h-1.8V542.8z"/>
	<path fill="#1D1D1B" d="M568.3,545.9L568.3,545.9c0-1.7,1.3-3.1,2.9-3.1c2,0,2.9,1.5,2.9,3.2c0,0.1,0,0.3,0,0.4H570
		c0.1,0.8,0.7,1.1,1.4,1.1c0.6,0,1-0.1,1.4-0.6l1,0.8c-0.6,0.7-1.4,1.1-2.5,1.1C569.7,549,568.3,547.7,568.3,545.9z M572.7,545.3
		c-0.1-0.7-0.6-1.3-1.3-1.3c-0.7,0-1.1,0.6-1.3,1.3H572.7z"/>
	<path fill="#1D1D1B" d="M575.5,547h1.8v1.8h-1.8V547z"/>
</g>
</svg>
