<?xml version="1.0" encoding="utf-8"?>
<!-- Generator: Adobe Illustrator 18.1.1, SVG Export Plug-In . SVG Version: 6.00 Build 0)  -->
<svg version="1.1" id="Layer_1" xmlns="http://www.w3.org/2000/svg" xmlns:xlink="http://www.w3.org/1999/xlink" x="0px" y="0px"
	 viewBox="0 63.6 841.9 468.2" enable-background="new 0 63.6 841.9 468.2" xml:space="preserve">
<g>
	<rect y="63.6" fill="#FFFFFF" width="841.9" height="468.2"/>
	<g>
		<rect x="71.2" y="152.9" fill="none" stroke="#E30613" stroke-width="0.5" stroke-miterlimit="10" width="699.5" height="299.4"/>
		<rect x="65.9" y="147" fill="none" stroke="#E30613" stroke-width="0.5" stroke-miterlimit="10" width="710.1" height="311.4"/>
	</g>
	<rect x="126.9" y="434" fill="#FFFFFF" width="588.1" height="47.6"/>
	<rect x="306.7" y="133.6" fill="#FFFFFF" width="228.4" height="47.6"/>
	<g>
		<path fill="#E30613" d="M142.8,456.2c0-2.6,1.4-4.5,3.7-5.9l0.8,1.2c-2,1.4-3,2.8-3,4.7c0,2,1,3.5,3,4.7l-0.8,1.2
			C144,460.7,142.8,458.7,142.8,456.2z"/>
		<path fill="#E30613" d="M151.9,452.1h-3.1v-1.6h7.9v1.6h-3.1v8.1h-1.8v-8.1H151.9z"/>
		<path fill="#E30613" d="M158.5,450.5h7.1v1.6h-5.5v2.6h5.1v1.6h-4.9v2.6h5.5v1.6h-7.3L158.5,450.5L158.5,450.5z"/>
		<path fill="#E30613" d="M171.5,450.5h1.6l4.3,9.6h-1.8l-1-2.4h-4.5l-1,2.4h-1.8L171.5,450.5z M173.9,456.4l-1.6-3.9l-1.6,3.9
			H173.9z"/>
		<path fill="#E30613" d="M179.2,450.5h4.3c1.2,0,2.2,0.4,2.8,1s0.8,1.2,0.8,2.2l0,0c0,1.6-1,2.6-2.4,3l2.6,3.7h-2l-2.4-3.3h-2v3.3
			h-1.8V450.5z M183.5,455.2c1.2,0,2-0.6,2-1.6l0,0c0-1-0.8-1.6-2-1.6H181v3.1H183.5z"/>
		<path fill="#E30613" d="M193.9,450.5h7.1v1.6h-5.5v2.6h4.9v1.6h-4.9v3.9h-1.8v-9.6H193.9z"/>
		<path fill="#E30613" d="M203.2,450.5h4.3c1.2,0,2.2,0.4,2.8,1c0.6,0.6,0.8,1.2,0.8,2.2l0,0c0,1.6-1,2.6-2.4,3l2.6,3.7h-2l-2.4-3.3
			h-2.2v3.3H203v-9.8H203.2z M207.3,455.2c1.2,0,2-0.6,2-1.6l0,0c0-1-0.8-1.6-2-1.6h-2.6v3.1H207.3z"/>
		<path fill="#E30613" d="M213,455.4L213,455.4c0-2.8,2.2-4.9,5.1-4.9s5.1,2.2,5.1,4.9l0,0c0,2.8-2.2,4.9-5.1,4.9
			S213,458.1,213,455.4z M221.3,455.4L221.3,455.4c0-2-1.4-3.5-3.3-3.5c-2,0-3.3,1.6-3.3,3.3l0,0c0,2,1.4,3.3,3.3,3.3
			C219.9,458.7,221.3,457.2,221.3,455.4z"/>
		<path fill="#E30613" d="M225.4,450.5h1.8l3,4.5l3-4.5h1.8v9.6h-1.8v-6.9l-3,4.5l0,0l-3-4.5v6.9h-1.6v-9.6H225.4z"/>
		<path fill="#E30613" d="M244.5,452.1h-3.1v-1.6h7.9v1.6h-3.1v8.1h-1.8v-8.1H244.5z"/>
		<path fill="#E30613" d="M251.2,450.5h1.8v3.9h4.5v-3.9h1.8v9.6h-1.8V456H253v4.1h-1.8L251.2,450.5L251.2,450.5z"/>
		<path fill="#E30613" d="M262,450.5h7.1v1.6h-5.5v2.6h4.9v1.6h-4.9v2.6h5.5v1.6h-7.3v-9.8H262z"/>
		<path fill="#E30613" d="M275.6,455.4L275.6,455.4c0-2.8,2-4.9,4.9-4.9c1.8,0,3,0.6,3.7,1.6l-1.2,1.2c-0.8-0.8-1.6-1.2-2.8-1.2
			c-1.8,0-3.1,1.6-3.1,3.3l0,0c0,2,1.4,3.3,3.1,3.3c1.2,0,2-0.4,2.8-1.2l1.2,1.2c-1,1-2.2,1.8-3.9,1.8
			C277.5,460.3,275.6,458.1,275.6,455.4z"/>
		<path fill="#E30613" d="M286,455.4L286,455.4c0-2.8,2.2-4.9,5.1-4.9c3,0,5.1,2.2,5.1,4.9l0,0c0,2.8-2.2,4.9-5.1,4.9
			C288.2,460.3,286,458.1,286,455.4z M294.3,455.4L294.3,455.4c0-2-1.4-3.5-3.3-3.5s-3.3,1.6-3.3,3.3l0,0c0,2,1.4,3.3,3.3,3.3
			C292.9,458.7,294.3,457.2,294.3,455.4z"/>
		<path fill="#E30613" d="M298.4,450.5h4.3c1.2,0,2.2,0.4,2.8,1c0.6,0.6,0.8,1.2,0.8,2.2l0,0c0,1.6-1,2.6-2.4,3l2.6,3.7h-2l-2.4-3.3
			H300v3.3h-1.8v-9.8H298.4z M302.5,455.2c1.2,0,2-0.6,2-1.6l0,0c0-1-0.8-1.6-2-1.6H300v3.1H302.5z"/>
		<path fill="#E30613" d="M308.6,450.5h1.6l5.1,6.7v-6.7h1.6v9.6h-1.4l-5.3-6.9v6.9h-1.6L308.6,450.5L308.6,450.5z"/>
		<path fill="#E30613" d="M319.6,450.5h7.1v1.6h-5.5v2.6h4.9v1.6h-4.9v2.6h5.5v1.6h-7.3v-9.8H319.6z"/>
		<path fill="#E30613" d="M329.3,450.5h4.3c1.2,0,2.2,0.4,2.8,1c0.6,0.6,0.8,1.2,0.8,2.2l0,0c0,1.6-1,2.6-2.4,3l2.6,3.7h-2L333,457
			h-2.2v3.3h-1.8v-9.8H329.3z M333.4,455.2c1.2,0,2-0.6,2-1.6l0,0c0-1-0.8-1.6-2-1.6h-2.6v3.1H333.4z"/>
		<path fill="#E30613" d="M338.7,458.7l1-1.2c1,0.8,1.8,1.2,3,1.2c1,0,1.8-0.6,1.8-1.2l0,0c0-0.8-0.4-1-2.2-1.6
			c-2-0.6-3.1-1.2-3.1-3l0,0c0-1.6,1.4-2.8,3.3-2.8c1.4,0,2.6,0.4,3.5,1.2l-1,1.4c-0.8-0.6-1.8-1-2.6-1c-1,0-1.6,0.6-1.6,1.2l0,0
			c0,0.8,0.4,1,2.4,1.6c2,0.6,3.1,1.2,3.1,2.8l0,0c0,1.8-1.4,3-3.5,3C341.3,460.3,339.9,459.7,338.7,458.7z"/>
		<path fill="#E30613" d="M355.2,452.1h-3.1v-1.6h7.9v1.6h-3.1v8.1H355v-8.1H355.2z"/>
		<path fill="#E30613" d="M361.7,455.4L361.7,455.4c0-2.8,2.2-4.9,5.1-4.9c3,0,5.1,2.2,5.1,4.9l0,0c0,2.8-2.2,4.9-5.1,4.9
			C363.9,460.3,361.7,458.1,361.7,455.4z M370,455.4L370,455.4c0-2-1.4-3.5-3.3-3.5c-2,0-3.3,1.6-3.3,3.3l0,0c0,2,1.4,3.3,3.3,3.3
			C368.6,458.7,370,457.2,370,455.4z"/>
		<path fill="#E30613" d="M378.5,450.5h4.3c1.2,0,2.2,0.4,2.8,1c0.6,0.6,0.8,1.2,0.8,2.2l0,0c0,1.6-1,2.6-2.4,3l2.6,3.7h-2l-2.4-3.3
			H380v3.3h-1.8v-9.8H378.5z M382.8,455.2c1.2,0,2-0.6,2-1.6l0,0c0-1-0.8-1.6-2-1.6h-2.6v3.1H382.8z"/>
		<path fill="#E30613" d="M388.7,450.5h7.1v1.6h-5.5v2.6h4.9v1.6h-4.9v2.6h5.5v1.6h-7.3v-9.8H388.7z"/>
		<path fill="#E30613" d="M397.3,450.5h2l3,7.5l3-7.5h1.8l-3.9,9.6h-1.6L397.3,450.5z"/>
		<path fill="#E30613" d="M408.9,450.5h7.1v1.6h-5.5v2.6h4.9v1.6h-4.9v2.6h5.5v1.6h-7.3v-9.8H408.9z"/>
		<path fill="#E30613" d="M421.7,450.5h1.6l4.3,9.6h-1.8l-1-2.4h-4.5l-1,2.4h-1.8L421.7,450.5z M424.3,456.4l-1.6-3.9l-1.6,3.9
			H424.3z"/>
		<path fill="#E30613" d="M429.6,450.5h1.8v8.1h5.1v1.6h-6.7v-9.6H429.6z"/>
		<path fill="#E30613" d="M445.1,452.1H442v-1.6h7.9v1.6h-3.1v8.1h-1.8v-8.1H445.1z"/>
		<path fill="#E30613" d="M451.8,450.5h1.8v3.9h4.5v-3.9h1.8v9.6h-1.8V456h-4.5v4.1h-1.8V450.5z"/>
		<path fill="#E30613" d="M462.6,450.5h7.1v1.6h-5.5v2.6h4.9v1.6h-4.9v2.6h5.5v1.6h-7.3v-9.8H462.6z"/>
		<path fill="#E30613" d="M476.2,455.4L476.2,455.4c0-2.8,2.2-4.9,4.9-4.9c1.8,0,2.8,0.4,3.7,1.4l-1,1.4c-0.8-0.6-1.4-1-2.8-1
			c-1.8,0-3.1,1.6-3.1,3.3l0,0c0,2,1.4,3.5,3.3,3.5c1,0,1.8-0.2,2.4-0.8v-1.8h-2.6v-1.4h4.1v4.1c-1,0.8-2.4,1.6-3.9,1.6
			C478.2,460.3,476.2,458.1,476.2,455.4z"/>
		<path fill="#E30613" d="M487.6,450.5h1.8v9.6h-1.8V450.5z"/>
		<path fill="#E30613" d="M492.3,450.5h7.1v1.6h-5.5v2.6h4.9v1.6h-4.9v3.9h-1.8v-9.6H492.3z"/>
		<path fill="#E30613" d="M504,452.1h-3.1v-1.6h7.9v1.6h-3.1v8.1h-1.8v-8.1H504z"/>
		<path fill="#E30613" d="M517.5,452.1h-3.1v-1.6h7.9v1.6h-3v8.1h-1.8V452.1z"/>
		<path fill="#E30613" d="M524.4,450.5h1.8v3.9h4.5v-3.9h1.8v9.6h-1.8V456h-4.5v4.1h-1.8V450.5z"/>
		<path fill="#E30613" d="M538.6,450.5h1.6l4.3,9.6h-1.8l-1-2.4H537l-1,2.4h-1.8L538.6,450.5z M540.9,456.4l-1.6-3.9l-1.6,3.9H540.9
			z"/>
		<path fill="#E30613" d="M548.6,452.1h-3.1v-1.6h7.9v1.6h-3.1v8.1h-1.8v-8.1H548.6z"/>
		<path fill="#E30613" d="M559.8,450.5h1.8v4.9l4.5-4.9h2.2l-3.9,4.1l4.1,5.5h-2.2l-3.3-4.3l-1.6,1.6v2.8h-1.8v-9.6H559.8z"/>
		<path fill="#E30613" d="M570,450.5h7.1v1.6h-5.5v2.6h4.9v1.6h-4.9v2.6h5.5v1.6h-7.3v-9.8H570z"/>
		<path fill="#E30613" d="M579.7,450.5h7.1v1.6h-5.5v2.6h4.9v1.6h-4.9v2.6h5.5v1.6h-7.3v-9.8H579.7z"/>
		<path fill="#E30613" d="M589.1,450.5h3.7c2.2,0,3.7,1.4,3.7,3.1l0,0c0,2.2-1.8,3.3-3.9,3.3h-2v3.1h-1.8v-9.6H589.1z M592.9,455.6
			c1.4,0,2.2-0.8,2.2-1.8l0,0c0-1.2-0.8-1.8-2.2-1.8h-2v3.5L592.9,455.6L592.9,455.6z"/>
		<path fill="#E30613" d="M598,458.7l1-1.2c1,0.8,1.8,1.2,3,1.2c1,0,1.8-0.6,1.8-1.2l0,0c0-0.8-0.4-1-2.2-1.6c-2-0.6-3.1-1.2-3.1-3
			l0,0c0-1.6,1.4-2.8,3.3-2.8c1.4,0,2.6,0.4,3.5,1.2l-1,1.4c-0.8-0.6-1.8-1-2.6-1c-1,0-1.6,0.6-1.6,1.2l0,0c0,0.8,0.4,1,2.4,1.6
			c2,0.6,3.1,1.2,3.1,2.8l0,0c0,1.8-1.4,3-3.5,3C600.5,460.3,599.2,459.7,598,458.7z"/>
		<path fill="#E30613" d="M611.7,455.4L611.7,455.4c0-2.8,2.2-4.9,5.1-4.9s5.1,2.2,5.1,4.9l0,0c0,2.8-2.2,4.9-5.1,4.9
			S611.7,458.1,611.7,455.4z M620,455.4L620,455.4c0-2-1.4-3.5-3.3-3.5s-3.3,1.6-3.3,3.3l0,0c0,2,1.4,3.3,3.3,3.3
			S620,457.2,620,455.4z"/>
		<path fill="#E30613" d="M624.1,450.5h1.6l5.1,6.7v-6.7h1.6v9.6H631l-5.3-6.9v6.9h-1.6L624.1,450.5L624.1,450.5z"/>
		<path fill="#E30613" d="M639.3,455.4L639.3,455.4c0-2.8,2.2-4.9,4.9-4.9c1.8,0,2.8,0.4,3.7,1.4l-1,1.4c-0.8-0.6-1.4-1-2.8-1
			c-1.8,0-3.1,1.6-3.1,3.3l0,0c0,2,1.4,3.5,3.3,3.5c1,0,1.8-0.2,2.4-0.8v-1.8h-2.6v-1.4h4.1v4.1c-1,0.8-2.4,1.6-3.9,1.6
			C641.3,460.3,639.3,458.1,639.3,455.4z"/>
		<path fill="#E30613" d="M650.9,450.5h1.8v9.6h-1.8V450.5z"/>
		<path fill="#E30613" d="M654.6,450.5h2l3,7.5l3-7.5h1.8l-3.9,9.6h-1.6L654.6,450.5z"/>
		<path fill="#E30613" d="M666,450.5h1.8v9.6H666V450.5z"/>
		<path fill="#E30613" d="M670.6,450.5h1.6l5.1,6.7v-6.7h1.6v9.6h-1.4l-5.3-6.9v6.9h-1.6L670.6,450.5L670.6,450.5z"/>
		<path fill="#E30613" d="M681.4,455.4L681.4,455.4c0-2.8,2.2-4.9,4.9-4.9c1.8,0,2.8,0.4,3.7,1.4l-1,1.4c-0.8-0.6-1.4-1-2.8-1
			c-1.8,0-3.1,1.6-3.1,3.3l0,0c0,2,1.4,3.5,3.3,3.5c1,0,1.8-0.2,2.4-0.8v-1.8h-2.6v-1.4h4.1v4.1c-1,0.8-2.4,1.6-3.9,1.6
			C683.3,460.3,681.4,458.1,681.4,455.4z"/>
		<path fill="#E30613" d="M692.6,458.3h1.8v2h-1.8V458.3z"/>
		<path fill="#E30613" d="M176.2,474.1h1.6l4.3,9.6h-1.8l-1-2.4h-4.5l-1,2.4h-1.8L176.2,474.1z M178.6,480L177,476l-1.6,3.9H178.6z"
			/>
		<path fill="#E30613" d="M183.9,474.1h1.6l5.1,6.7v-6.7h1.6v9.6h-1.4l-5.3-6.9v6.9h-1.6V474.1z"/>
		<path fill="#E30613" d="M195.1,474.1h3.5c3,0,5.1,2.2,5.1,4.7l0,0c0,2.8-2.2,4.9-5.1,4.9h-3.5V474.1z M196.7,475.7v6.5h2
			c2,0,3.3-1.4,3.3-3.3l0,0c0-2-1.4-3.3-3.3-3.3h-2V475.7z"/>
		<path fill="#E30613" d="M210.1,479L210.1,479c0-2.8,2.2-4.9,4.9-4.9c1.8,0,2.8,0.4,3.7,1.4l-1,1.4c-0.8-0.6-1.4-1-2.8-1
			c-1.8,0-3.1,1.6-3.1,3.3l0,0c0,2,1.4,3.5,3.3,3.5c1,0,1.8-0.2,2.4-0.8v-1.8H215v-1.4h4.1v4.1c-1,0.8-2.4,1.6-3.9,1.6
			C212,483.9,210.1,481.8,210.1,479z"/>
		<path fill="#E30613" d="M221.7,474.1h1.8v9.6h-1.8V474.1z"/>
		<path fill="#E30613" d="M225.4,474.1h2l3,7.5l3-7.5h1.8l-3.9,9.6h-1.6L225.4,474.1z"/>
		<path fill="#E30613" d="M236.8,474.1h1.8v9.6h-1.8V474.1z"/>
		<path fill="#E30613" d="M241.6,474.1h1.6l5.1,6.7v-6.7h1.6v9.6h-1.4l-5.3-6.9v6.9h-1.6L241.6,474.1L241.6,474.1z"/>
		<path fill="#E30613" d="M252.2,479L252.2,479c0-2.8,2.2-4.9,4.9-4.9c1.8,0,2.8,0.4,3.7,1.4l-1,1.4c-0.8-0.6-1.4-1-2.8-1
			c-1.8,0-3.1,1.6-3.1,3.3l0,0c0,2,1.4,3.5,3.3,3.5c1,0,1.8-0.2,2.4-0.8v-1.8h-2.6v-1.4h4.1v4.1c-1,0.8-2.4,1.6-3.9,1.6
			C254.1,483.9,252.2,481.8,252.2,479z"/>
		<path fill="#E30613" d="M263.4,482h1.8v2h-1.8V482z"/>
		<path fill="#E30613" d="M275.4,474.1h1.6l4.3,9.6h-1.8l-1-2.4H274l-1,2.4h-1.8L275.4,474.1z M277.9,480l-1.6-3.9l-1.6,3.9H277.9z"
			/>
		<path fill="#E30613" d="M283.3,474.1h1.6l5.1,6.7v-6.7h1.6v9.6h-1.4l-5.3-6.9v6.9h-1.6V474.1z"/>
		<path fill="#E30613" d="M294.5,474.1h3.5c3,0,5.1,2.2,5.1,4.7l0,0c0,2.8-2.2,4.9-5.1,4.9h-3.5V474.1z M296,475.7v6.5h2
			c2,0,3.3-1.4,3.3-3.3l0,0c0-2-1.4-3.3-3.3-3.3h-2V475.7z"/>
		<path fill="#E30613" d="M309.4,479L309.4,479c0-2.8,2.2-4.9,4.9-4.9c1.8,0,2.8,0.4,3.7,1.4l-1,1.4c-0.8-0.6-1.4-1-2.8-1
			c-1.8,0-3.1,1.6-3.1,3.3l0,0c0,2,1.4,3.5,3.3,3.5c1,0,1.8-0.2,2.4-0.8v-1.8h-2.6v-1.4h4.1v4.1c-1,0.8-2.4,1.6-3.9,1.6
			C311.4,483.9,309.4,481.8,309.4,479z"/>
		<path fill="#E30613" d="M321,474.1h1.8v9.6H321V474.1z"/>
		<path fill="#E30613" d="M324.8,474.1h2l3,7.5l3-7.5h1.8l-3.9,9.6h-1.6L324.8,474.1z"/>
		<path fill="#E30613" d="M336.2,474.1h1.8v9.6h-1.8V474.1z"/>
		<path fill="#E30613" d="M340.7,474.1h1.6l5.1,6.7v-6.7h1.6v9.6h-1.4l-5.3-6.9v6.9h-1.6L340.7,474.1L340.7,474.1z"/>
		<path fill="#E30613" d="M351.5,479L351.5,479c0-2.8,2.2-4.9,4.9-4.9c1.8,0,2.8,0.4,3.7,1.4l-1,1.4c-0.8-0.6-1.4-1-2.8-1
			c-1.8,0-3.1,1.6-3.1,3.3l0,0c0,2,1.4,3.5,3.3,3.5c1,0,1.8-0.2,2.4-0.8v-1.8h-2.6v-1.4h4.1v4.1c-1,0.8-2.4,1.6-3.9,1.6
			C353.5,483.9,351.5,481.8,351.5,479z"/>
		<path fill="#E30613" d="M362.7,482h1.8v2h-1.8V482z"/>
		<path fill="#E30613" d="M374.7,474.1h1.6l4.3,9.6h-1.8l-1-2.4h-4.5l-1,2.4h-1.8L374.7,474.1z M377.3,480l-1.6-3.9l-1.6,3.9H377.3z
			"/>
		<path fill="#E30613" d="M382.6,474.1h1.6l5.1,6.7v-6.7h1.6v9.6h-1.4l-5.3-6.9v6.9h-1.6V474.1z"/>
		<path fill="#E30613" d="M393.6,474.1h3.5c3,0,5.1,2.2,5.1,4.7l0,0c0,2.8-2.2,4.9-5.1,4.9h-3.5V474.1z M395.4,475.7v6.5h2
			c2,0,3.3-1.4,3.3-3.3l0,0c0-2-1.4-3.3-3.3-3.3h-2V475.7z"/>
		<path fill="#E30613" d="M408.7,479L408.7,479c0-2.8,2.2-4.9,4.9-4.9c1.8,0,2.8,0.4,3.7,1.4l-1,1.4c-0.8-0.6-1.4-1-2.8-1
			c-1.8,0-3.1,1.6-3.1,3.3l0,0c0,2,1.4,3.5,3.3,3.5c1,0,1.8-0.2,2.4-0.8v-1.8h-2.6v-1.4h4.1v4.1c-1,0.8-2.4,1.6-3.9,1.6
			C410.7,483.9,408.7,481.8,408.7,479z"/>
		<path fill="#E30613" d="M420.4,474.1h1.8v9.6h-1.8V474.1z"/>
		<path fill="#E30613" d="M424.1,474.1h2l3,7.5l3-7.5h1.8l-3.9,9.6h-1.6L424.1,474.1z"/>
		<path fill="#E30613" d="M435.5,474.1h1.8v9.6h-1.8V474.1z"/>
		<path fill="#E30613" d="M440,474.1h1.6l5.1,6.7v-6.7h1.6v9.6h-1.4l-5.3-6.9v6.9H440L440,474.1L440,474.1z"/>
		<path fill="#E30613" d="M450.8,479L450.8,479c0-2.8,2.2-4.9,4.9-4.9c1.8,0,2.8,0.4,3.7,1.4l-1.2,1.2c-0.8-0.6-1.4-1-2.8-1
			c-1.8,0-3.1,1.6-3.1,3.3l0,0c0,2,1.4,3.5,3.3,3.5c1,0,1.8-0.2,2.4-0.8V480h-2.6v-1.4h4.1v4.1c-1,0.8-2.4,1.6-3.9,1.6
			C452.8,483.9,450.8,481.8,450.8,479z"/>
		<path fill="#E30613" d="M462.1,482h1.8v2h-1.8V482z"/>
		<path fill="#E30613" d="M474.1,474.1h1.6l4.3,9.6h-1.8l-1-2.4h-4.5l-1,2.4h-1.8L474.1,474.1z M476.6,480L475,476l-1.6,3.9H476.6z"
			/>
		<path fill="#E30613" d="M481.9,474.1h1.6l5.1,6.7v-6.7h1.6v9.6h-1.4l-5.3-6.9v6.9h-1.6V474.1z"/>
		<path fill="#E30613" d="M492.9,474.1h3.5c3,0,5.1,2.2,5.1,4.7l0,0c0,2.8-2.2,4.9-5.1,4.9h-3.5V474.1z M494.7,475.7v6.5h2
			c2,0,3.3-1.4,3.3-3.3l0,0c0-2-1.4-3.3-3.3-3.3h-2V475.7z"/>
		<path fill="#E30613" d="M508.1,479L508.1,479c0-2.8,2.2-4.9,4.9-4.9c1.8,0,2.8,0.4,3.7,1.4l-1,1.4c-0.8-0.6-1.4-1-2.8-1
			c-1.8,0-3.1,1.6-3.1,3.3l0,0c0,2,1.4,3.5,3.3,3.5c1,0,1.8-0.2,2.4-0.8v-1.8H513v-1.4h4.1v4.1c-1,0.8-2.4,1.6-3.9,1.6
			C510.1,483.9,508.1,481.8,508.1,479z"/>
		<path fill="#E30613" d="M519.7,474.1h1.8v9.6h-1.8V474.1z"/>
		<path fill="#E30613" d="M523.4,474.1h2l3,7.5l3-7.5h1.8l-3.9,9.6h-1.6L523.4,474.1z"/>
		<path fill="#E30613" d="M534.8,474.1h1.8v9.6h-1.8V474.1z"/>
		<path fill="#E30613" d="M539.4,474.1h1.6l5.1,6.7v-6.7h1.6v9.6h-1.4l-5.3-6.9v6.9h-1.6L539.4,474.1L539.4,474.1z"/>
		<path fill="#E30613" d="M550.2,479L550.2,479c0-2.8,2.2-4.9,4.9-4.9c1.8,0,2.8,0.4,3.7,1.4l-1,1.4c-0.8-0.6-1.4-1-2.8-1
			c-1.8,0-3.1,1.6-3.1,3.3l0,0c0,2,1.4,3.5,3.3,3.5c1,0,1.8-0.2,2.4-0.8v-1.8h-2.6v-1.4h4.1v4.1c-1,0.8-2.4,1.6-3.9,1.6
			C552.1,483.9,550.2,481.8,550.2,479z"/>
		<path fill="#E30613" d="M561.4,482h1.8v2h-1.8V482z"/>
		<path fill="#E30613" d="M573.4,474.1h1.6l4.3,9.6h-1.8l-1-2.4H572l-1,2.4h-1.8L573.4,474.1z M575.9,480l-1.6-3.9l-1.6,3.9H575.9z"
			/>
		<path fill="#E30613" d="M581.3,474.1h1.6l5.1,6.7v-6.7h1.6v9.6h-1.4l-5.3-6.9v6.9h-1.6V474.1z"/>
		<path fill="#E30613" d="M592.3,474.1h3.5c3,0,5.1,2.2,5.1,4.7l0,0c0,2.8-2.2,4.9-5.1,4.9h-3.5V474.1z M594,475.7v6.5h2
			c2,0,3.3-1.4,3.3-3.3l0,0c0-2-1.4-3.3-3.3-3.3h-2V475.7z"/>
		<path fill="#E30613" d="M607.4,479L607.4,479c0-2.8,2.2-4.9,4.9-4.9c1.8,0,2.8,0.4,3.7,1.4l-1,1.4c-0.8-0.6-1.4-1-2.8-1
			c-1.8,0-3.1,1.6-3.1,3.3l0,0c0,2,1.4,3.5,3.3,3.5c1,0,1.8-0.2,2.4-0.8v-1.8h-2.6v-1.4h4.1v4.1c-1,0.8-2.4,1.6-3.9,1.6
			C609.4,483.9,607.4,481.8,607.4,479z"/>
		<path fill="#E30613" d="M619,474.1h1.8v9.6H619V474.1z"/>
		<path fill="#E30613" d="M622.6,474.1h2l3,7.5l3-7.5h1.8l-3.9,9.6h-1.6L622.6,474.1z"/>
		<path fill="#E30613" d="M634.2,474.1h1.8v9.6h-1.8V474.1z"/>
		<path fill="#E30613" d="M638.7,474.1h1.6l5.1,6.7v-6.7h1.6v9.6h-1.4l-5.3-6.9v6.9h-1.6L638.7,474.1L638.7,474.1z"/>
		<path fill="#E30613" d="M649.5,479L649.5,479c0-2.8,2.2-4.9,4.9-4.9c1.8,0,2.8,0.4,3.7,1.4l-1.2,1.2c-0.8-0.6-1.4-1-2.8-1
			c-1.8,0-3.1,1.6-3.1,3.3l0,0c0,2,1.4,3.5,3.3,3.5c1,0,1.8-0.2,2.4-0.8V480h-2.6v-1.4h4.1v4.1c-1,0.8-2.4,1.6-3.9,1.6
			C651.5,483.9,649.5,481.8,649.5,479z"/>
		<path fill="#E30613" d="M660.7,482h1.8v2h-1.8V482z"/>
		<path fill="#E30613" d="M664.3,484.5c2-1.4,3-2.8,3-4.7s-1-3.5-3-4.7l0.8-1.2c2.6,1.4,3.7,3.3,3.7,5.9s-1.4,4.5-3.7,5.9
			L664.3,484.5z"/>
	</g>
	<g>
		<g>
			<path fill="#E30613" stroke="#E30613" stroke-width="0.5" stroke-miterlimit="10" d="M328.1,139.7h1.4l5.5,15.5l5.1-15.5h1
				l5.1,15.5l5.5-15.5h1.4l-6.3,17.5h-1l-5.1-15.1l-5.1,15.1h-1.2L328.1,139.7z"/>
			<path fill="#E30613" stroke="#E30613" stroke-width="0.5" stroke-miterlimit="10" d="M357.4,139.7h7.3c2.2,0,3.9,0.6,4.9,1.8
				c0.8,0.8,1.4,2,1.4,3.1l0,0c0,3-2.2,4.5-5.1,4.9l5.7,7.5h-1.8l-5.5-7.3h-5.7v7.3h-1.4v-17.3H357.4z M364.5,148.7
				c3,0,5.1-1.4,5.1-3.9l0,0c0-2.4-1.8-3.7-4.9-3.7h-5.9v7.9h5.7V148.7z"/>
			<path fill="#E30613" stroke="#E30613" stroke-width="0.5" stroke-miterlimit="10" d="M375.9,139.7h1.4V157h-1.4V139.7z"/>
			<path fill="#E30613" stroke="#E30613" stroke-width="0.5" stroke-miterlimit="10" d="M383.2,139.7h6.3c3.7,0,6.5,2,6.5,5.3l0,0
				c0,3.7-3.1,5.5-6.7,5.5h-4.7v6.5h-1.4L383.2,139.7L383.2,139.7z M389.1,149.5c3.1,0,5.5-1.8,5.5-4.3l0,0c0-2.8-2.2-4.1-5.3-4.1
				h-4.9v8.5H389.1z"/>
			<path fill="#E30613" stroke="#E30613" stroke-width="0.5" stroke-miterlimit="10" d="M418,154.4c-1.6,2-3.5,3-5.9,3
				c-3.1,0-5.3-2-5.3-4.9l0,0c0-2.4,1.6-4.1,4.5-5.1c-1.4-1.4-2-2.6-2-3.9l0,0c0-2.2,1.8-3.9,4.3-3.9c2.2,0,3.9,1.8,3.9,3.7l0,0
				c0,2.2-1.6,3.5-4.3,4.5l4.5,4.7c0.8-1.2,1.6-2.6,2.2-4.1l1.2,0.4c-0.8,1.8-1.6,3.3-2.6,4.7l3.1,3.3l-1,0.8L418,154.4z
				 M417.2,153.7l-5.1-5.3c-2.8,1-3.9,2.6-3.9,4.3l0,0c0,2.2,1.8,3.7,4.1,3.7C414.1,156.2,415.8,155.2,417.2,153.7z M416.4,143.4
				L416.4,143.4c0-1.6-1.2-2.8-2.8-2.8c-1.8,0-3,1.2-3,2.8l0,0c0,1.2,0.4,2,2,3.5C415,146.2,416.4,145,416.4,143.4z"/>
			<path fill="#E30613" stroke="#E30613" stroke-width="0.5" stroke-miterlimit="10" d="M432.6,139.7h1.4l5.5,15.5l5.1-15.5h1
				l5.1,15.5l5.5-15.5h1.4l-6.3,17.5h-1l-5.1-15.1l-5.1,15.1h-1L432.6,139.7z"/>
			<path fill="#E30613" stroke="#E30613" stroke-width="0.5" stroke-miterlimit="10" d="M461.9,139.7h7.3c2.2,0,3.9,0.6,4.9,1.8
				c0.8,0.8,1.4,2,1.4,3.1l0,0c0,3-2.2,4.5-5.1,4.9l5.7,7.5h-1.6l-5.5-7.3h-5.7v7.3h-1.4L461.9,139.7L461.9,139.7z M468.9,148.7
				c3,0,5.1-1.4,5.1-3.9l0,0c0-2.4-1.8-3.7-4.9-3.7h-5.9v7.9h5.7V148.7z"/>
			<path fill="#E30613" stroke="#E30613" stroke-width="0.5" stroke-miterlimit="10" d="M486.8,139.7h1.2l8.1,17.5h-1.4l-2.2-4.9
				h-10.2l-2.2,4.9h-1.4L486.8,139.7z M492,151.1l-4.5-10l-4.5,10H492z"/>
			<path fill="#E30613" stroke="#E30613" stroke-width="0.5" stroke-miterlimit="10" d="M500.4,139.7h6.3c3.7,0,6.5,2,6.5,5.3l0,0
				c0,3.7-3.1,5.5-6.7,5.5h-4.9v6.5h-1.4v-17.3H500.4z M506.5,149.5c3.1,0,5.5-1.8,5.5-4.3l0,0c0-2.8-2.2-4.1-5.3-4.1h-5.1v8.5
				H506.5z"/>
		</g>
		<g>
			<path fill="#E30613" d="M376.5,118c0-6.3,0-12.6,0-18.9c-0.8,0-1.6,0-2.4,0c0-2.8,0-5.5,0-8.3c17.7,0,74.9,0,92.6,0
				c0,2.8,0,5.5,0,8.3c-0.6,0-1.2,0-1.8,0c0,6.3,0,12.6,0,18.9C448.7,118,393,118,376.5,118z M417.4,99.2c-6.3,0-32.5,0-38.8,0
				c0,5.5,0,11.2,0,16.7c6.3,0,32.5,0,38.8,0C417.4,110.4,417.4,104.9,417.4,99.2z M463,99.2c-6.3,0-32.5,0-38.8,0
				c0,5.5,0,11.2,0,16.7c6.3,0,32.5,0,38.8,0C463,110.4,463,104.9,463,99.2z M417,93.1c-7.1,0-33.6,0-40.7,0c0,1.2,0,2.4,0,3.3
				c0,0.4,0.2,0.6,0.6,0.6c6.7,0,32.8,0,39.5,0c0.2,0,0.4,0,0.6,0C417,95.8,417,94.4,417,93.1z M465,93.1c-6.9,0-33.4,0-40.1,0
				c0,1.4,0,2.8,0,3.9c0.2,0,0.4,0,0.6,0c6.5,0,32.7,0,39.1,0h0.2c0.2,0,0.2-0.2,0.2-0.2C465,95.6,465,94.4,465,93.1z M422.1,99.2
				c-1,0-1.8,0-2.6,0c0,5.5,0,11.2,0,16.7c0.8,0,1.8,0,2.6,0C422.1,110.4,422.1,104.9,422.1,99.2z M422.5,97.2c0-1.4,0-2.8,0-3.9
				c-1.2,0-2.4,0-3.5,0c0,1.4,0,2.6,0,3.9C420.4,97.2,421.3,97.2,422.5,97.2z"/>
			<path fill="#E30613" d="M420.6,88c0.8-1.2,1.6-2.4,2.4-3.3c1.2-1.6,2.8-2.6,4.7-2.8c2.8-0.4,5.3,1.4,5.7,3.9
				c0.4,2.8-1.4,5.5-4.1,5.9c-0.2,0-0.6,0-0.8,0c-5.3,0-10.6,0-15.9,0c-2.2,0-3.9-1.4-4.7-3.3s-0.2-4.1,1.2-5.5
				c1.6-1.4,3.9-1.8,6.1-0.6c1.6,0.8,2.8,2,3.7,3.3C419.8,86.6,420.2,87.4,420.6,88z M419,89.7c-1-2-2-3.9-3.9-5.1
				c-0.8-0.6-1.8-0.8-2.8-0.8c-1.4,0.2-2.6,1.4-2.6,2.8c0,1.6,1.2,3,2.6,3C414.7,89.7,416.8,89.7,419,89.7z M422.3,89.7
				c2.2,0,4.3,0,6.5,0c1.4,0,2.6-1.2,2.8-2.8c0.2-1.4-0.6-2.6-2-3c-1.4-0.4-2.6,0-3.5,0.8C424.3,86,423.3,87.8,422.3,89.7z"/>
		</g>
	</g>
	<g>
		<g>
			<path stroke="#000000" stroke-width="0.5" stroke-miterlimit="10" d="M150.7,249.6h3.9v15.7h20.5v-15.7h3.9v35.4h-3.9v-15.9
				h-20.5v15.9h-3.9V249.6z"/>
			<path stroke="#000000" stroke-width="0.5" stroke-miterlimit="10" d="M187.5,277.4L187.5,277.4c0-5.7,4.5-8.5,11.2-8.5
				c3.3,0,5.7,0.4,8.1,1.2v-1c0-4.7-3-7.1-7.9-7.1c-3.1,0-5.5,0.8-7.9,2l-1.2-3.1c3-1.4,5.7-2.2,9.4-2.2s6.5,1,8.5,3
				c1.8,1.8,2.8,4.3,2.8,7.7v15.9h-3.7v-3.9c-1.8,2.4-4.9,4.5-9.4,4.5C192.4,285.6,187.5,282.9,187.5,277.4z M206.7,275.4v-2.6
				c-2-0.6-4.5-1.2-7.7-1.2c-4.9,0-7.7,2.2-7.7,5.5v0.2c0,3.3,3,5.1,6.5,5.1C202.8,282.5,206.7,279.5,206.7,275.4z"/>
			<path stroke="#000000" stroke-width="0.5" stroke-miterlimit="10" d="M219.7,258.9h3.9v5.3c2.2-3.1,5.1-5.9,10-5.9
				c6.3,0,12.6,4.9,12.6,13.6v0.2c0,8.5-6.1,13.6-12.6,13.6c-4.9,0-8.1-2.6-10-5.5v13.2h-3.9V258.9z M242.1,272.1L242.1,272.1
				c0-6.3-4.3-10.2-9.2-10.2c-4.9,0-9.4,4.1-9.4,10v0.2c0,6.1,4.5,10,9.4,10C238,282.1,242.1,278.4,242.1,272.1z"/>
			<path stroke="#000000" stroke-width="0.5" stroke-miterlimit="10" d="M254.3,258.9h3.9v5.3c2.2-3.1,5.1-5.9,10-5.9
				c6.3,0,12.6,4.9,12.6,13.6v0.2c0,8.5-6.1,13.6-12.6,13.6c-4.9,0-8.1-2.6-10-5.5v13.2h-3.9V258.9z M276.8,272.1L276.8,272.1
				c0-6.3-4.3-10.2-9.2-10.2c-4.9,0-9.4,4.1-9.4,10v0.2c0,6.1,4.5,10,9.4,10C272.6,282.1,276.8,278.4,276.8,272.1z"/>
			<path stroke="#000000" stroke-width="0.5" stroke-miterlimit="10" d="M308.6,258.9h4.1l-11,26.9c-2.2,5.5-4.7,7.5-8.7,7.5
				c-2.2,0-3.7-0.4-5.5-1.4l1.4-3.1c1.2,0.6,2.4,1,4.1,1c2.4,0,3.7-1.2,5.3-4.9l-11.8-26h4.3l9.4,21.8L308.6,258.9z"/>
			<path stroke="#000000" stroke-width="0.5" stroke-miterlimit="10" d="M336.8,249.6h3.9v15.7h20.5v-15.7h3.9v35.4h-3.9v-15.9
				h-20.5v15.9h-3.9V249.6z"/>
			<path stroke="#000000" stroke-width="0.5" stroke-miterlimit="10" d="M373.9,272.1L373.9,272.1c0-7.5,5.7-13.8,13.6-13.8
				s13.6,6.1,13.6,13.6v0.2c0,7.5-5.9,13.6-13.8,13.6C379.6,285.6,373.9,279.5,373.9,272.1z M397.1,272.1L397.1,272.1
				c0-5.7-4.1-10.2-9.6-10.2c-5.7,0-9.6,4.5-9.6,10v0.2c0,5.7,4.1,10.2,9.6,10.2C393.2,282.1,397.1,277.6,397.1,272.1z"/>
			<path stroke="#000000" stroke-width="0.5" stroke-miterlimit="10" d="M409.5,248.1h3.9v37h-3.9V248.1z"/>
			<path stroke="#000000" stroke-width="0.5" stroke-miterlimit="10" d="M423.7,248.9h4.5v4.3h-4.5V248.9z M423.9,258.9h3.9v26.2
				h-3.9V258.9z"/>
			<path stroke="#000000" stroke-width="0.5" stroke-miterlimit="10" d="M436.3,272.1L436.3,272.1c0-8.7,6.3-13.8,12.6-13.8
				c4.9,0,8.1,2.6,10,5.5v-15.7h3.9v37h-3.9v-5.3c-2.2,3.1-5.1,5.9-10,5.9C442.6,285.6,436.3,280.7,436.3,272.1z M458.9,272.1
				L458.9,272.1c0-6.1-4.5-10.2-9.4-10.2c-5.1,0-9.2,3.7-9.2,10v0.2c0,6.1,4.3,10,9.2,10C454.4,282.1,458.9,278,458.9,272.1z"/>
			<path stroke="#000000" stroke-width="0.5" stroke-miterlimit="10" d="M470.5,277.4L470.5,277.4c0-5.7,4.5-8.5,11.2-8.5
				c3.3,0,5.7,0.4,8.1,1.2v-1c0-4.7-3-7.1-7.9-7.1c-3.1,0-5.5,0.8-7.9,2l-1.2-3.1c3-1.4,5.7-2.2,9.4-2.2c3.7,0,6.5,1,8.5,3
				c1.8,1.8,2.8,4.3,2.8,7.7v15.9h-3.7v-3.9c-1.8,2.4-4.9,4.5-9.4,4.5C475.4,285.6,470.5,282.9,470.5,277.4z M489.8,275.4v-2.6
				c-2-0.6-4.5-1.2-7.7-1.2c-4.9,0-7.7,2.2-7.7,5.5v0.2c0,3.3,3,5.1,6.5,5.1C485.9,282.5,489.8,279.5,489.8,275.4z"/>
			<path stroke="#000000" stroke-width="0.5" stroke-miterlimit="10" d="M522.2,258.9h4.1l-11,26.9c-2.2,5.5-4.7,7.5-8.7,7.5
				c-2.2,0-3.7-0.4-5.5-1.4l1.4-3.1c1.2,0.6,2.4,1,4.1,1c2.4,0,3.7-1.2,5.3-4.9l-11.8-26h4.3l9.4,21.8L522.2,258.9z"/>
			<path stroke="#000000" stroke-width="0.5" stroke-miterlimit="10" d="M531.5,281.7l2-2.8c2.8,2.2,5.9,3.3,9,3.3s5.5-1.6,5.5-4.1
				V278c0-2.6-3.1-3.7-6.5-4.5c-4.1-1.2-8.7-2.6-8.7-7.5v-0.2c0-4.5,3.7-7.5,8.9-7.5c3.1,0,6.7,1.2,9.4,3l-1.8,3
				c-2.4-1.6-5.1-2.6-7.7-2.6c-3.1,0-5.1,1.6-5.1,3.7v0.2c0,2.6,3.1,3.3,6.7,4.5c4.1,1.2,8.5,2.8,8.5,7.5v0.2c0,4.9-4.1,7.9-9.2,7.9
				C538.6,285.6,534.4,284.1,531.5,281.7z"/>
			<path stroke="#000000" stroke-width="0.5" stroke-miterlimit="10" d="M577.5,262.4H574v-3.3h3.5v-2.4c0-3,0.8-5.3,2.4-6.7
				c1.4-1.4,3.1-2,5.7-2c1.8,0,3,0.2,4.3,0.6v3.3c-1.4-0.4-2.6-0.6-3.7-0.6c-3,0-4.5,1.8-4.5,5.5v2.2h8.3v3.3h-8.3v22.6h-3.9v-22.6
				H577.5z"/>
			<path stroke="#000000" stroke-width="0.5" stroke-miterlimit="10" d="M595.6,258.9h3.9v6.9c2-4.3,5.7-7.5,10.6-7.3v4.1h-0.4
				c-5.7,0-10.4,4.1-10.4,12v10.4h-3.9v-26.2H595.6z"/>
			<path stroke="#000000" stroke-width="0.5" stroke-miterlimit="10" d="M615.5,272.1L615.5,272.1c0-7.5,5.7-13.8,13.6-13.8
				c7.9,0,13.6,6.1,13.6,13.6v0.2c0,7.5-5.9,13.6-13.8,13.6C621.2,285.6,615.5,279.5,615.5,272.1z M638.7,272.1L638.7,272.1
				c0-5.7-4.1-10.2-9.6-10.2c-5.7,0-9.6,4.5-9.6,10v0.2c0,5.7,4.1,10.2,9.6,10.2C634.8,282.1,638.7,277.6,638.7,272.1z"/>
			<path stroke="#000000" stroke-width="0.5" stroke-miterlimit="10" d="M650.7,258.9h3.9v4.3c1.8-2.6,4.1-4.9,8.5-4.9
				s6.9,2.4,8.5,5.1c2-3,4.7-5.1,9.2-5.1c6.1,0,9.6,4.1,9.6,10.4v16.1h-3.9v-15.3c0-5.1-2.6-7.9-6.7-7.9c-3.9,0-7.3,3-7.3,8.1v15.1
				h-3.9v-15.3c0-4.9-2.6-7.9-6.7-7.9c-4.1,0-7.3,3.3-7.3,8.3v14.9h-3.9L650.7,258.9L650.7,258.9z"/>
		</g>
		<g>
			<path fill="#262626" d="M361,349.4c-2.6,2.6-6.5,3.9-11.8,3.9h-5.7l0.2-29.7h5.7c4.9,0,8.5,0.6,11.4,3.3c2.6,2.4,4.3,6.3,4.3,11
				C364.9,343.1,363.3,347,361,349.4 M351.3,320.1h-16.5v3.5h4.1l-0.2,29.7h-3.9v3.5h14.8c12.4,0,20.3-6.1,20.3-18.9
				C369.8,325.8,362.3,320.1,351.3,320.1"/>
			<path fill="#262626" d="M438.8,346.6c0-4.5,0.2-8.9,0.2-13.4h8.5v-3.5H439l0.2-6.9l-4.5,0.2v6.7h-4.3v3.5h4.3
				c0,3.9-0.2,12-0.2,15.3c0,3.5,0,8.9,7.7,8.9c2.2,0,4.7-0.6,6.1-1.2l0.2-3.7c-1.2,0.4-3.1,1.2-5.3,1.2
				C438.8,353.7,438.8,350.6,438.8,346.6"/>
			<path fill="#262626" d="M461.1,354.1c-2.8,0-5.1-1.6-5.1-4.7c0-5.1,6.5-5.1,13-5.1C468.7,351.9,463.8,354.1,461.1,354.1
				 M472.9,338.8c0-7.3-3.7-9.8-10.8-9.8c-3.3,0-6.5,1-9.6,2.2v6.5h3.9v-4.3c2-0.8,4.5-1,5.9-1c4.3,0,6.3,1.8,6.3,6.9v2
				c-9.4,0-17.3,0.4-17.3,8.3c0,6.7,5.3,7.9,8.5,7.9c4.7,0,7.5-2.2,9-6.5h0.2c-0.2,1-0.6,3.1-0.6,4.7v1.2h7.1v-3.5h-3.1
				C472.7,348.4,472.9,341.1,472.9,338.8"/>
			<path fill="#262626" d="M490.2,341.1c-3.9-0.6-6.5-1.6-6.5-4.5c0-3,3.7-4.1,6.3-4.1c1.2,0,3.7,0.2,4.7,1l0.2,3.9h3.9l-0.2-6.5
				c-2.2-1-6.3-1.6-8.7-1.6c-7.9,0-10.6,3.7-10.6,8.1c0,5.3,3.5,6.5,10.8,8.1c3,0.6,5.7,1.6,5.7,4.3c0,3-3.7,4.5-6.3,4.5
				c-1.8,0-4.5-0.4-6.1-1.2l-0.2-4.1h-3.9l0.2,6.9c1.8,1,6.3,1.6,9.2,1.6c7.9,0,11-3.9,11-8.7C500,344.3,497.1,342.3,490.2,341.1"/>
			<polygon fill="#262626" points="524,353.3 511.4,353.3 511.8,323.6 515.6,323.6 515.6,320.1 503,320.1 503,323.6 507.3,323.6 
				506.9,353.3 503,353.3 503,356.8 528,356.8 528,347.8 524.2,347.8 			"/>
			<path fill="#262626" d="M539.8,353.5h-3.3l0.2-13.8h4.3c4.3,0,9.6,1,9.6,7.1C550.6,353.5,544.3,353.5,539.8,353.5 M536.6,323.4
				h4.5c2.4,0,7.5-0.2,7.5,6.3c0,5.5-4.7,6.7-9.4,6.7h-2.6V323.4z M545.9,337.6L545.9,337.6c3.9-0.8,7.1-3.7,7.1-8.7
				c0-3.9-1.8-6.5-4.7-7.9c-2.2-1-4.1-1.2-7.7-1.2h-12.8v3.5h4.1l-0.4,33.2h10.6c6.5,0,13-2.4,13-10.2
				C555.3,340.7,550.6,337.4,545.9,337.6"/>
			<polygon fill="#262626" points="382.4,329.7 373.7,329.7 373.7,333.2 378.1,333.2 377.9,353.3 374.1,353.3 374.1,356.8 
				385.7,356.8 385.7,353.3 382.2,353.3 			"/>
			<polygon fill="#262626" points="425.1,329.7 416.4,329.7 416.4,333.2 420.7,333.2 420.6,353.3 417,353.3 417,356.8 428.4,356.8 
				428.4,353.3 424.9,353.3 			"/>
			<polygon fill="#262626" points="558.6,329.7 558.6,333.2 563,333.2 562.8,353.3 559,353.3 559,356.8 570.6,356.8 570.6,353.3 
				566.9,353.3 567.3,329.7 			"/>
			<path fill="#262626" d="M400.7,367.3c-2.8,0-9-0.6-9-4.7c0-3.5,5.3-4.9,5.9-4.9l7.3,1c2.4,0.4,4.5,0.8,4.5,3.1
				C409.5,365.7,404,367.3,400.7,367.3 M392.6,339.1c0-3.9,3.1-6.3,7.3-6.3c5.1,0,7.1,3.5,7.1,6.1c0,3.7-3,6.7-7.5,6.7
				C395.8,345.8,392.6,342.9,392.6,339.1 M406.6,355.1l-7.3-1.2c-3.3-0.6-4.3-1-4.3-2.2c0-2,3.5-2.6,4.7-2.6
				c6.3,0,11.4-3.5,11.4-9.6c0-2-0.4-3.9-2-5.9c-0.2-0.4-0.6-0.6-0.8-0.8l4.7,0.6v-3.7l-9.6,0.2l0,0c-1-0.4-2.2-0.6-3.5-0.6
				c-6.5,0-11.2,4.1-11.2,9.8c0,6.9,4.9,8.7,6.9,9v0.2c-2.4,0.6-4.9,1.4-4.9,4.1c0,2.6,2,3.7,4.1,4.1v0.2c-3.5,0.8-6.9,2.6-6.9,6.7
				c0,5.3,6.3,7.3,12.8,7.3c6.7,0,13.2-2.8,13.2-9C413.7,357.2,410.7,355.7,406.6,355.1"/>
			<path fill="#262626" d="M379.6,319.9c-1.8,0-3.1,1.4-3.1,3.1s1.4,3.1,3.1,3.1c1.8,0,3.1-1.4,3.1-3.1
				C382.8,321.4,381.4,319.9,379.6,319.9"/>
			<path fill="#262626" d="M422.3,319.9c-1.8,0-3.1,1.4-3.1,3.1s1.4,3.1,3.1,3.1c1.8,0,3.1-1.4,3.1-3.1
				C425.7,321.4,424.1,319.9,422.3,319.9"/>
			<path fill="#262626" d="M564.5,319.9c-1.8,0-3.1,1.4-3.1,3.1s1.4,3.1,3.1,3.1s3.1-1.4,3.1-3.1
				C567.7,321.4,566.3,319.9,564.5,319.9"/>
			<path fill="#E5262C" d="M298,311.2c-15.1,0-27.3,12.2-27.3,27.3s12.2,27.3,27.3,27.3s27.3-12.2,27.3-27.3
				C325.5,323.4,313.2,311.2,298,311.2"/>
			<path fill="#FFFFFF" d="M287,326L287,326L287,326z"/>
			<polygon fill="#FFFFFF" points="302.9,331.1 303.5,329.9 304.7,329.3 303.5,328.7 302.9,327.3 302.3,328.7 301.2,329.1 
				302.3,329.9 			"/>
			<polygon fill="#FFFFFF" points="294.7,320.1 295.1,319.5 295.6,319.1 295.1,318.9 294.7,318.1 294.3,318.7 293.7,319.1 
				294.3,319.5 			"/>
			<polygon fill="#FFFFFF" points="295.6,346 295.1,347.2 294.1,347.6 295.1,348.2 295.4,349.2 296,348.2 297,347.6 296,347.2 			
				"/>
			<polygon fill="#FFFFFF" points="282.9,334.6 282.5,333.6 282.1,334.6 281.3,334.8 282.1,335.4 282.5,336.2 282.9,335.4 
				283.6,335 			"/>
			<path fill="#FFFFFF" d="M316.1,353.3c-0.6-0.6-1.6-0.2-2.4,0s-0.8-0.6-0.8-0.6s1,0.4,1.8,0c1.4-0.4,1.6-2,1.6-2
				c-0.4,0.8-1.2,1-1.2,1c0.2-0.2,0.2-0.8,0.2-0.8c-0.4,0.8-1.4,1-2.2,0.2c-0.2-0.2-0.2-0.4-0.2-0.8c0-0.6,0.4-1.2,1-1.8
				c1.2-1.2,2.4-3.1,1.8-4.9c-0.4-2-1.2-3.1-2-3.7c-1-0.8-2.4-1.4-3-1.4c-0.6-0.2-2.2,0.2-2.6,0.4c-0.2,0.2-0.2,0-0.2,0
				s-1.6-2.8-3.7-3s-3.1,0.2-3.7,0c-0.6,0-2-0.4-2.4-0.8s-1-1-1.2-1c-0.2-0.2,0-1.2,0-1.8c0-0.6,0.4-1.4,0-2.2
				c0-0.4-0.2-0.4-0.2-0.4c0.6,1.2,1.4,0.4,1.4,0.4s-0.6,0.2-0.6-0.4c0-0.6-0.4-0.8-0.4-0.8c-0.2-0.2,0-0.6-0.2-1
				c-0.2-0.6,0-0.6,0-0.6c0.6,1.8,1.6,1,1.6,1s-0.8,0-0.8-1s-0.6-1.4-1-1.4c-0.2,0-0.6-0.2-0.8-0.2c0,0,0,0-0.2,0
				c-0.2-0.2-0.4-0.4-0.6-0.6c-0.2-0.4-0.6-0.6-0.8-0.8c-0.2-0.2-0.6-0.2-0.8-0.4c-0.2,0-0.4-0.2-0.4-0.2c-0.2,0-0.4,0-0.6,0
				c0-0.2-0.2-0.6-0.4-1c-0.6-1-1.8-0.8-1.8-0.8c0.4,0.2,1,0.6,0.8,1.2s-0.6,0.6-0.6,0.6s0.4-0.2,0.2-1c-0.2-0.6-1-0.4-1-0.4
				s1,0.6,0.2,1.2c-0.4,0.4-1.2-0.8-1.8-0.4c-0.8,0.4-0.4,1-0.2,1.2H288l0,0l0,0c0-0.2-0.2-0.2-0.4-0.2l0,0h-0.2
				c0-0.2-0.2-0.2-0.4-0.2l0,0l0,0c0-0.2-0.2-0.2-0.4-0.2l0,0h-0.2c0-0.2-0.2-0.2-0.4-0.2l0,0l0,0c0-0.2-0.2-0.2-0.4-0.2l0,0h-0.2
				c0-0.2-0.2-0.2-0.4-0.2l0,0h-0.2c0-0.2-0.2-0.2-0.2-0.2l0,0l0,0c0-0.2-0.2-0.2-0.4-0.2l0,0l0,0c0-0.2-0.2-0.2-0.2-0.2l0,0l0,0
				c0-0.2-0.2-0.2-0.2-0.2l0,0l0,0c0-0.2-0.2-0.2-0.2-0.2l0,0l0,0c0-0.2-0.2-0.2-0.2-0.2l0,0l-0.4-0.2c0,0-0.8-0.4-0.4,0.2
				c0,0,0.2,0.2,0.4,0.2c0,0.2,0.2,0.2,0.2,0.2l0,0l0,0c0,0.2,0.2,0.2,0.2,0.2l0,0l0,0c0,0.2,0.2,0.2,0.2,0.2l0,0l0,0
				c0,0.2,0.2,0.2,0.2,0.2l0,0l0,0c0,0.2,0.2,0.2,0.4,0.2l0,0c0,0,0,0,0.2,0c0,0.2,0.2,0.2,0.4,0.2l0,0c0,0,0,0,0.2,0
				c0,0.2,0.2,0.2,0.4,0.2l0,0h0.2c0,0.2,0.2,0.2,0.4,0.2l0,0l0,0c0,0.2,0.2,0.2,0.4,0.2l0,0c0,0,0,0,0.2,0c0,0.2,0.2,0.2,0.4,0.2
				l0,0l0,0c0,0.2,0.2,0.2,0.4,0.2l0,0c0,0,0,0,0.2,0c0,0.2,0.2,0.2,0.4,0.2l0,0l0,0c0,0.2,0.2,0.2,0.4,0.2l0,0
				c-0.2,0-0.6,0.2-0.8,0.4c-0.2,0.4-0.4,0.6-0.6,0.6c0,0,0.2,0.4,0.8-0.2s1,0,1.2,0c0,0,0,0-0.2,0.2s-0.2,0.2-0.4,0.4
				c-0.2,0.2-0.2,0.2-0.4,0.6c-0.2,0.2-0.2,0.2-0.4,0.4c-0.2,0.2-0.4,0.4-0.6,0.6s-0.2,0.4-0.2,0.6s-0.2,0.6,0.4,1
				c0.6,0.4,0.6,0.2,0.6,0.2c0.2,0,0.2,0.2,0.4,0.2s0.6,0,0.8-0.2c0-0.2,0.4-0.4,0.6-0.4c0.2-0.2,2,0,2.6-0.8
				c0.6-0.6,0.4-0.2,0.4-0.2s-0.2,1.2-0.6,1.8c-0.4,0.6-0.6,2-0.8,2.4c0,0.4-0.4,3-0.4,3.1s-0.8,0.2-1,1.2c-0.2,1.2,0,3.1,0,3.1
				s-2.2-0.2-2.8-0.4c-0.6,0-1.2,0-1.4,0.4c-0.2,0.4-0.4,0.2-0.6,0.8c0,0.6,0.2,0.8,0.2,1.2c0,0.4,0.2,1.6,0.2,2.2
				c0,0.6,0,1.4,0,1.6c0.2,0.2,0.6,0,0.6,0.2s0.2,0.2,0.4,0.4c0.2,0.4,0.6,1.4,1.8,1c0.2-1,0-1.4-0.6-1.8c-0.2,0-0.4,0-0.4,0
				l-0.2-0.2c0,0,0.2-0.2,0.2-0.4c0-0.2-0.6-0.4-0.8-1.2c-0.2-0.8,0-1.8-0.2-2.2c-0.2-0.4,1-0.4,1-0.4c0.2,0,1.4,1.4,3,1
				c0.4,0.2,1,0.8,1,0.8s-0.6,1.6-0.6,3c-0.4,0.2-0.4,0.8-0.4,1s-0.2,0.4-0.4,1.2c0,0.8-0.2,1-0.4,1.4c-0.2,0.4-0.2,0.8-0.6,1.2
				c-0.4,0.4-0.8,0.2-0.8,0.6c0,0.2-0.2,0.6-0.6,0.6c-0.4,0.2-0.8,0.8-0.8,1.2c-0.2,0.4,1,1,2,0.4c0.2-0.4,0-1,0-1s0.4,0,0.6-0.2
				c0.4-0.2,0.4-0.8,0.6-1.2c0-0.4,1.4-2.8,1.6-3s0.2-0.6,0.2-0.6l0.4-0.4c0,0,0.2-1.4,0.4-1.6c0.2-0.2,1.4-2.2,1.4-2.2
				s0-0.2,0.2-0.8c0.2-0.4,2.2,1.2,6.9,0c0,0.4,0,1.4,0.2,1.8c0.2,0.4,1,1,1.2,1.2s0.2,0.6,0.4,1s0.6,0.4,1,1c0.4,0.4,0.4,1,0.2,1.2
				c0,0.2-2.4,2.2-2.6,2.4c-0.2,0.2-0.6,0.2-0.8,0.8c-0.2,0.4-0.8,0.6-0.8,0.6s-0.4,0-0.6,0.4c0,0.2-0.4,1-0.4,1.2s1.8,0.2,2-0.2
				c0.2-0.4,0-1,0-1c0.2,0,0.2,0,0.2,0s0.8,0.2,1-0.2c0.2-0.4,0.2-0.6,0.2-0.6s1.8-1.4,2.4-1.6c0.4-0.2,1.2-0.8,1.4-1
				c0-0.4-0.2-0.8-0.4-1.2c-0.4-0.4-0.2-0.6-0.2-0.6s-0.2-1.6-0.2-2s1.2,1.6,3,1.6c0.4,0.6,0.8,0.8,0.8,0.8l-1.8,2
				c0,0-0.6,0-0.8,0.6c-0.2,0.6,0,1.8,0,2.2c-0.2,0.4,1,0.6,1.4,1c0.4-0.6,0.4-1.8,0.2-1.8c-0.2,0-0.6,0-0.6-0.2
				c0-0.2,0.2-0.2,0.4-0.4c0.2,0,0.2-0.6,0.2-0.6c0-0.2,2.4-2.4,2.4-2.4l-0.4,1c-0.4,0.8-0.6,2-0.2,2.6c0.4,0.6,0.6,0.4,0.6,0.4
				s0.8,2.4,3,2c0.4-0.2,0.6-0.2,0.6-0.2c1.8,1,2.2-0.2,3-0.8c0.8-0.6,1,0.6,1,0.6S316.7,353.9,316.1,353.3 M306.9,344.7
				c0,0,0,0.2,0,0.4c0,0.4,0,0.8,0,0.8s0,0.2-0.2,0.2s-0.2,0-0.4-0.4l0,0c0-0.2,0-0.2,0-0.4c0-0.2,0-0.2,0.4-0.4
				C306.7,344.7,306.9,344.5,306.9,344.7L306.9,344.7z M309.4,341.1c-0.2,0.4-1.4,1.4-1,0.8c0.2-0.6,0-2.2,0-2.2
				C309,338.9,309.4,340.7,309.4,341.1"/>
			<polygon fill="#FFFFFF" points="311.8,334.6 312.2,333.8 313,333.6 312.2,333.2 312,332.3 311.6,333 310.8,333.4 311.6,333.8 			
				"/>
			<g>
				<path fill="#E5262C" d="M420.7,363.3h1.6l1.8,2.8l1.8-2.8h1.6v6.7h-1.4v-4.3l-1.8,2.8l0,0l-1.8-2.8v4.3h-1.4v-6.7H420.7z"/>
				<path fill="#E5262C" d="M430.4,363.3h4.9v1.4h-3.5v1.4h3.1v1.4h-3.1v1.4h3.5v1.4h-5.1v-6.9H430.4z"/>
				<path fill="#E5262C" d="M438.1,363.3h1.4l3.1,4.1v-4.1h1.4v6.7h-1.2l-3.1-4.1v4.1h-1.4v-6.7H438.1z"/>
				<path fill="#E5262C" d="M449.1,363.3h1.4l2.8,6.7h-1.6l-0.6-1.6h-2.8l-0.6,1.6h-1.6L449.1,363.3z M450.6,367.1l-0.8-2.2
					l-0.8,2.2H450.6z"/>
			</g>
		</g>
	</g>
</g>
<g>
	<g>
		<g>
			<path fill="#E53029" d="M462.5,508.4c0,0,4-0.2,6.2,3.9c-1.1,0-6.5,0-6.5,0s-1.2,0-2.3,1.5c-0.3,0.6-0.6,1.3-0.3,2.5
				c-0.5-0.9-2.8-4.8-2.8-4.8S458.4,508.5,462.5,508.4z"/>
			<path fill="#FDD900" d="M468.5,518.7c0,0-1.9,3.6-6.5,3.4c0.6-1,3.3-5.7,3.3-5.7s0.7-1-0.1-2.7c-0.4-0.6-0.8-1.2-2.1-1.5
				c1,0,5.6,0,5.6,0S470.4,515.1,468.5,518.7z"/>
			<path fill="#66B44B" d="M456.6,518.7c0,0-2.2-3.4,0.3-7.3c0.6,1,3.3,5.7,3.3,5.7s0.6,1.1,2.4,1.3c0.7-0.1,1.4-0.1,2.3-1
				c-0.5,0.9-2.8,4.8-2.8,4.8S458.8,522.2,456.6,518.7z"/>
			<path fill="#61AB48" d="M462,522.1l0.9-3.8c0,0,1-0.1,1.9-1C464.3,518.2,462,522.1,462,522.1z"/>
			<circle fill="#FFFFFF" cx="462.5" cy="515.3" r="3.1"/>
			<linearGradient id="SVGID_1_" gradientUnits="userSpaceOnUse" x1="462.5017" y1="512.791" x2="462.5017" y2="517.7005">
				<stop  offset="0" style="stop-color:#96C1E9"/>
				<stop  offset="1" style="stop-color:#116CB3"/>
			</linearGradient>
			<circle fill="url(#SVGID_1_)" cx="462.5" cy="515.3" r="2.5"/>
			<path fill="#F0CE00" d="M468.7,512.2l-3.8,1.1c0,0-0.6-0.8-1.8-1.1C464.2,512.2,468.7,512.2,468.7,512.2z"/>
			<path fill="#D92F27" d="M459.6,516.1c-0.5-0.9-2.7-4.7-2.7-4.7l2.8,2.8c0,0-0.3,0.6-0.2,1.4L459.6,516.1z"/>
		</g>
		
			<image overflow="visible" width="512" height="512" xlink:href="firefox-512-noshadow.png"  transform="matrix(2.919283e-02 0 0 2.919283e-02 434.5428 507.7877)">
		</image>
	</g>
	<g>
		<path fill="#E30613" d="M372.9,515.5L372.9,515.5c0-1.6,1.2-2.9,2.9-2.9c1.7,0,2.9,1.3,2.9,2.9v0c0,1.6-1.2,2.9-2.9,2.9
			S372.9,517.1,372.9,515.5z M377.7,515.5L377.7,515.5c0-1.1-0.8-2-1.9-2s-1.9,0.9-1.9,2v0c0,1.1,0.8,2,1.9,2
			S377.7,516.6,377.7,515.5z"/>
		<path fill="#E30613" d="M379.8,514h1v0.7c0.3-0.4,0.8-0.8,1.4-0.8c1,0,2,0.8,2,2.2v0c0,1.4-1,2.2-2,2.2c-0.7,0-1.1-0.4-1.4-0.7
			v1.9h-1V514z M383.2,516.2L383.2,516.2c0-0.8-0.6-1.4-1.2-1.4c-0.7,0-1.2,0.5-1.2,1.4v0c0,0.8,0.6,1.4,1.2,1.4
			C382.7,517.5,383.2,517,383.2,516.2z"/>
		<path fill="#E30613" d="M385.4,517.1v-2.2h-0.5V514h0.5v-1.2h1v1.2h1.1v0.8h-1.1v2.1c0,0.4,0.2,0.5,0.5,0.5c0.2,0,0.4,0,0.6-0.1
			v0.8c-0.2,0.1-0.5,0.2-0.9,0.2C385.9,518.3,385.4,518,385.4,517.1z"/>
		<path fill="#E30613" d="M388.5,512.5h1v0.9h-1V512.5z M388.5,514h1v4.2h-1V514z"/>
		<path fill="#E30613" d="M390.8,514h1v0.6c0.3-0.4,0.6-0.7,1.3-0.7c0.6,0,1,0.3,1.3,0.7c0.3-0.4,0.8-0.7,1.4-0.7
			c0.9,0,1.5,0.6,1.5,1.6v2.7h-1v-2.4c0-0.7-0.3-1-0.9-1c-0.5,0-0.9,0.4-0.9,1v2.4h-1v-2.4c0-0.7-0.3-1-0.9-1s-0.9,0.4-0.9,1v2.4h-1
			V514z"/>
		<path fill="#E30613" d="M398.4,512.5h1v0.9h-1V512.5z M398.4,514h1v4.2h-1V514z"/>
		<path fill="#E30613" d="M400.3,517.7l0.4-0.7c0.5,0.3,1,0.5,1.4,0.5c0.4,0,0.7-0.2,0.7-0.5v0c0-0.3-0.4-0.4-0.9-0.6
			c-0.6-0.2-1.3-0.4-1.3-1.2v0c0-0.8,0.7-1.3,1.5-1.3c0.5,0,1.1,0.2,1.6,0.5l-0.4,0.7c-0.4-0.2-0.8-0.4-1.2-0.4
			c-0.4,0-0.6,0.2-0.6,0.4v0c0,0.3,0.5,0.4,1,0.6c0.6,0.2,1.3,0.5,1.3,1.2v0c0,0.9-0.7,1.3-1.6,1.3
			C401.5,518.3,400.8,518.1,400.3,517.7z"/>
		<path fill="#E30613" d="M404.4,516.2L404.4,516.2c0-1.2,0.9-2.2,2.1-2.2c1.3,0,2,1.1,2,2.3c0,0.1,0,0.2,0,0.3h-3.1
			c0.1,0.7,0.6,1.1,1.2,1.1c0.5,0,0.8-0.2,1.1-0.5l0.6,0.5c-0.4,0.5-1,0.8-1.7,0.8C405.4,518.4,404.4,517.5,404.4,516.2z
			 M407.6,515.9c-0.1-0.6-0.4-1.1-1.1-1.1c-0.6,0-1,0.5-1.1,1.1H407.6z"/>
		<path fill="#E30613" d="M409.3,516.2L409.3,516.2c0-1.4,1-2.2,2-2.2c0.7,0,1.1,0.3,1.4,0.7v-2.3h1v5.8h-1v-0.7
			c-0.3,0.4-0.8,0.8-1.4,0.8C410.2,518.4,409.3,517.6,409.3,516.2z M412.7,516.2L412.7,516.2c0-0.8-0.6-1.4-1.2-1.4
			c-0.7,0-1.2,0.5-1.2,1.4v0c0,0.8,0.6,1.4,1.2,1.4C412.1,517.5,412.7,517,412.7,516.2z"/>
		<path fill="#E30613" d="M417.5,514.9h-0.5v-0.8h0.5v-0.3c0-0.5,0.1-0.8,0.3-1c0.2-0.2,0.5-0.3,1-0.3c0.3,0,0.6,0,0.8,0.1v0.8
			c-0.2-0.1-0.4-0.1-0.6-0.1c-0.4,0-0.6,0.2-0.6,0.6v0.2h1.1v0.8h-1.1v3.4h-1V514.9z"/>
		<path fill="#E30613" d="M420,516.2L420,516.2c0-1.2,1-2.2,2.3-2.2s2.2,1,2.2,2.2v0c0,1.2-1,2.2-2.3,2.2
			C421,518.4,420,517.4,420,516.2z M423.6,516.2L423.6,516.2c0-0.8-0.5-1.4-1.3-1.4c-0.8,0-1.3,0.6-1.3,1.3v0c0,0.7,0.5,1.4,1.3,1.4
			C423.1,517.5,423.6,516.9,423.6,516.2z"/>
		<path fill="#E30613" d="M425.5,514h1v1c0.3-0.6,0.8-1.1,1.5-1v1h-0.1c-0.8,0-1.4,0.6-1.4,1.7v1.6h-1V514z"/>
	</g>
</g>
</svg>
